<svg xmlns="http://www.w3.org/2000/svg" xmlns:xlink="http://www.w3.org/1999/xlink" width="113" height="113" viewBox="0 0 113 113">
  <defs>
    <filter id="Path_982547" x="0" y="0" width="113" height="113" filterUnits="userSpaceOnUse">
      <feOffset dy="3" input="SourceAlpha"/>
      <feGaussianBlur stdDeviation="3" result="blur"/>
      <feFlood flood-opacity="0.161"/>
      <feComposite operator="in" in2="blur"/>
      <feComposite in="SourceGraphic"/>
    </filter>
  </defs>
  <g id="Group_1224348" data-name="Group 1224348" transform="translate(-324 -1459.043)">
    <g id="Group_1224255" data-name="Group 1224255" transform="translate(0 6)">
      <g id="Group_1223775" data-name="Group 1223775" transform="translate(0 -4451.031)">
        <g id="Group_1206275" data-name="Group 1206275" transform="translate(0 -3448.335)">
          <g id="Group_1203802" data-name="Group 1203802" transform="translate(0.5 6552.41)">
            <g id="Group_1202424" data-name="Group 1202424" transform="translate(0 1464)">
              <g id="Group_1178325" data-name="Group 1178325" transform="translate(0 424)">
                <g id="Group_1177679" data-name="Group 1177679" transform="translate(332.5 918)">
                  <g id="Group_1172010" data-name="Group 1172010">
                    <g id="Group_1171046" data-name="Group 1171046">
                      <g id="Group_1148525" data-name="Group 1148525">
                        <g transform="matrix(1, 0, 0, 1, -9, -6)" filter="url(#Path_982547)">
                          <g id="Path_982547-2" data-name="Path 982547" transform="translate(9 6)" fill="#fdecc1">
                            <path d="M 47.5 93.5 C 41.28937149047852 93.5 35.26533508300781 92.28397369384766 29.59518623352051 89.88570404052734 C 24.11771965026855 87.56893157958984 19.19813346862793 84.25196075439453 14.97309303283691 80.02691650390625 C 10.74804019927979 75.80186462402344 7.431066513061523 70.88229370117188 5.114293098449707 65.40481567382812 C 2.716026782989502 59.73468017578125 1.5 53.71062850952148 1.5 47.5 C 1.5 41.28937149047852 2.716026782989502 35.26533508300781 5.114293098449707 29.59518623352051 C 7.431066513061523 24.11771965026855 10.74804019927979 19.19813346862793 14.97309303283691 14.97309303283691 C 19.19813346862793 10.74804019927979 24.11771965026855 7.431066513061523 29.59518623352051 5.114293098449707 C 35.26533508300781 2.716026782989502 41.28937149047852 1.5 47.5 1.5 C 53.71062850952148 1.5 59.73468017578125 2.716026782989502 65.40481567382812 5.114293098449707 C 70.88229370117188 7.431066513061523 75.80186462402344 10.74804019927979 80.02691650390625 14.97309303283691 C 84.25196075439453 19.19813346862793 87.56893157958984 24.11771965026855 89.88570404052734 29.59518623352051 C 92.28397369384766 35.26533508300781 93.5 41.28937149047852 93.5 47.5 C 93.5 53.71062850952148 92.28397369384766 59.73468017578125 89.88570404052734 65.40481567382812 C 87.56893157958984 70.88229370117188 84.25196075439453 75.80186462402344 80.02691650390625 80.02691650390625 C 75.80186462402344 84.25196075439453 70.88229370117188 87.56893157958984 65.40481567382812 89.88570404052734 C 59.73468017578125 92.28397369384766 53.71062850952148 93.5 47.5 93.5 Z" stroke="none"/>
                            <path d="M 47.5 3 C 41.49121475219727 3 35.66376876831055 4.176155090332031 30.17950439453125 6.495796203613281 C 24.88084411621094 8.736953735351562 20.12152099609375 11.94598388671875 16.03375244140625 16.03375244140625 C 11.94598388671875 20.12152099609375 8.736953735351562 24.88084411621094 6.495796203613281 30.17950439453125 C 4.176155090332031 35.66376876831055 3 41.49121475219727 3 47.5 C 3 53.50878524780273 4.176155090332031 59.33623123168945 6.495796203613281 64.82049560546875 C 8.736953735351562 70.11915588378906 11.94598388671875 74.87847900390625 16.03375244140625 78.96624755859375 C 20.12152099609375 83.05401611328125 24.88084411621094 86.26304626464844 30.17950439453125 88.50419616699219 C 35.66376876831055 90.82384490966797 41.49121475219727 92 47.5 92 C 53.50878524780273 92 59.33623123168945 90.82384490966797 64.82049560546875 88.50419616699219 C 70.11915588378906 86.26304626464844 74.87847900390625 83.05401611328125 78.96624755859375 78.96624755859375 C 83.05401611328125 74.87847900390625 86.26304626464844 70.11915588378906 88.50419616699219 64.82049560546875 C 90.82384490966797 59.33623123168945 92 53.50878524780273 92 47.5 C 92 41.49121475219727 90.82384490966797 35.66376876831055 88.50419616699219 30.17950439453125 C 86.26304626464844 24.88084411621094 83.05401611328125 20.12152099609375 78.96624755859375 16.03375244140625 C 74.87847900390625 11.94598388671875 70.11915588378906 8.736953735351562 64.82049560546875 6.495796203613281 C 59.33623123168945 4.176155090332031 53.50878524780273 3 47.5 3 M 47.5 0 C 73.7335205078125 0 95 21.2664794921875 95 47.5 C 95 73.7335205078125 73.7335205078125 95 47.5 95 C 21.2664794921875 95 0 73.7335205078125 0 47.5 C 0 21.2664794921875 21.2664794921875 0 47.5 0 Z" stroke="none" fill="#f8c234"/>
                          </g>
                        </g>
                      </g>
                    </g>
                  </g>
                </g>
              </g>
            </g>
          </g>
        </g>
      </g>
      <g id="skill-development_17650429" transform="translate(321.265 1435.701)">
        <path id="Path_1176036" data-name="Path 1176036" d="M146.775,296.264a3.024,3.024,0,0,1-3.382-5.014l9.4-6.352a3.025,3.025,0,1,1,3.381,5.019Z" transform="translate(-98.149 -209.339)" fill="#a61e22"/>
        <g id="Group_1224254" data-name="Group 1224254" transform="translate(28.921 47.387)">
          <path id="Path_1176037" data-name="Path 1176037" d="M252.887,219.2h2.563a1.337,1.337,0,0,1,1.36,1.313v.965a1.313,1.313,0,0,0,1.013,1.27,14.343,14.343,0,0,1,3.389,1.356,1.38,1.38,0,0,0,1.645-.205l.7-.684a1.4,1.4,0,0,1,1.923,0l1.815,1.752a1.284,1.284,0,0,1,0,1.858l-.7.684a1.266,1.266,0,0,0-.218,1.586,13.194,13.194,0,0,1,1.4,3.279,1.34,1.34,0,0,0,1.317.977h1a1.34,1.34,0,0,1,1.36,1.313v2.479a1.34,1.34,0,0,1-1.36,1.313h-1a1.342,1.342,0,0,0-1.317.977,13.3,13.3,0,0,1-1.4,3.279,1.264,1.264,0,0,0,.218,1.586l.7.684a1.284,1.284,0,0,1,0,1.858l-1.811,1.752a1.4,1.4,0,0,1-1.925,0l-.7-.681a1.379,1.379,0,0,0-1.645-.209,14.285,14.285,0,0,1-3.389,1.356,1.313,1.313,0,0,0-1.013,1.27v.965a1.338,1.338,0,0,1-1.36,1.313h-2.563a1.34,1.34,0,0,1-1.36-1.313v-.965a1.309,1.309,0,0,0-1.009-1.27,14.375,14.375,0,0,1-3.393-1.356,1.375,1.375,0,0,0-1.641.209l-.7.681a1.4,1.4,0,0,1-1.925,0l-1.811-1.752a1.285,1.285,0,0,1,0-1.858l.7-.684a1.266,1.266,0,0,0,.218-1.586,13.3,13.3,0,0,1-1.408-3.279,1.332,1.332,0,0,0-1.313-.977h-1a1.34,1.34,0,0,1-1.36-1.313v-2.479a1.34,1.34,0,0,1,1.36-1.313h1a1.333,1.333,0,0,0,1.313-.977,13.419,13.419,0,0,1,1.408-3.279,1.264,1.264,0,0,0-.218-1.586l-.7-.681a1.289,1.289,0,0,1,0-1.863l1.811-1.752a1.4,1.4,0,0,1,1.925,0l.7.684a1.372,1.372,0,0,0,1.641.205,14.245,14.245,0,0,1,3.393-1.356,1.309,1.309,0,0,0,1.009-1.27v-.965A1.338,1.338,0,0,1,252.887,219.2Z" transform="translate(-208.671 -200.639)" fill="#05b3e1" fill-rule="evenodd"/>
          <path id="Path_1176038" data-name="Path 1176038" d="M308.652,279.95a8.194,8.194,0,1,1-8.472,8.187A8.338,8.338,0,0,1,308.652,279.95Z" transform="translate(-263.13 -252.913)" fill="#b3b4b4" fill-rule="evenodd"/>
          <path id="Path_1176039" data-name="Path 1176039" d="M324.249,297.05a7.922,7.922,0,0,1,.707,3.279,8.338,8.338,0,0,1-8.476,8.191,8.573,8.573,0,0,1-6.493-2.93,7.922,7.922,0,0,1-.707-3.279,8.335,8.335,0,0,1,8.476-8.191A8.573,8.573,0,0,1,324.249,297.05Z" transform="translate(-270.961 -265.106)" fill="#e6e6e6" fill-rule="evenodd"/>
          <path id="Path_1176040" data-name="Path 1176040" d="M379.754,310.9a2.092,2.092,0,1,1-2.164,2.089A2.127,2.127,0,0,1,379.754,310.9Z" transform="translate(-329.74 -279.545)" fill="#fff" fill-rule="evenodd"/>
          <path id="Path_1176041" data-name="Path 1176041" d="M410.86,275.52a.966.966,0,1,1-1,.965A.983.983,0,0,1,410.86,275.52Z" transform="translate(-357.508 -249.101)" fill="#fff" fill-rule="evenodd"/>
          <path id="Path_1176042" data-name="Path 1176042" d="M286.474,86.165a12.022,12.022,0,0,1,6.191,22.409,4.059,4.059,0,0,0-2.061,3.639l.032,2.658-7.649.086-.032-2.654a4.056,4.056,0,0,0-2.143-3.591,12.02,12.02,0,0,1,5.662-22.547Z" transform="translate(-241.114 -86.164)" fill="#f6851f" fill-rule="evenodd"/>
          <path id="Path_1176043" data-name="Path 1176043" d="M293.537,144.394c-.285.2-.578.392-.882.569a4.059,4.059,0,0,0-2.061,3.639l0,.442a11.966,11.966,0,0,1-2.377,1.819,4.636,4.636,0,0,0-.613.427l-4.631.056-.032-2.654A4.056,4.056,0,0,0,280.8,145.1a12.018,12.018,0,0,1-5.56-14.447,12.022,12.022,0,0,1,18.294,13.74Z" transform="translate(-241.106 -122.553)" fill="#ffc60b" fill-rule="evenodd"/>
          <path id="Path_1176044" data-name="Path 1176044" d="M339.168,325.624l1.179-.015a3.14,3.14,0,1,0-.071-6.28l-1.183.015a3.14,3.14,0,1,0,.075,6.28Z" transform="translate(-293.943 -286.797)" fill="gray" fill-rule="evenodd"/>
          <path id="Path_1176045" data-name="Path 1176045" d="M342.9,347.988l1.179-.015a3.147,3.147,0,0,0,2.548-1.356,3.149,3.149,0,0,0-2.578-1.3l-1.179.015a3.138,3.138,0,0,0-2.543,1.356A3.139,3.139,0,0,0,342.9,347.988Z" transform="translate(-297.679 -309.161)" fill="#989897" fill-rule="evenodd"/>
          <path id="Path_1176046" data-name="Path 1176046" d="M326.208,292.075l4.818-.056a3.065,3.065,0,1,1,.071,6.129l-4.818.056a3.065,3.065,0,0,1-.071-6.129Z" transform="translate(-282.92 -263.297)" fill="gray" fill-rule="evenodd"/>
          <path id="Path_1176047" data-name="Path 1176047" d="M337.479,319.6a3.068,3.068,0,0,1-2.432,1.254l-4.818.056a3.065,3.065,0,0,1-2.46-1.194,3.063,3.063,0,0,1,2.432-1.254l4.818-.056A3.067,3.067,0,0,1,337.479,319.6Z" transform="translate(-286.871 -286.005)" fill="#989897" fill-rule="evenodd"/>
          <path id="Path_1176048" data-name="Path 1176048" d="M314.032,277.148l9.88-.119a2.061,2.061,0,0,1,.047,4.121l-9.88.114a2.059,2.059,0,0,1-.047-4.117Z" transform="translate(-273.3 -250.399)" fill="gray" fill-rule="evenodd"/>
          <path id="Path_1176049" data-name="Path 1176049" d="M327.519,292.8a2.052,2.052,0,0,1-1.768,1.052l-9.875.114a1.188,1.188,0,1,1-.028-2.057l9.88-.119A2.067,2.067,0,0,1,327.519,292.8Z" transform="translate(-275.091 -263.1)" fill="#989897" fill-rule="evenodd"/>
          <path id="Path_1176050" data-name="Path 1176050" d="M49.986,291.48c5.5,1.578,6.984,10.9,8.985,15.254h6.952c3.986,0,3.986,6.055,0,6.055H57.433v0c-2.08,0-3.856-2.9-5.157-4.43,0,.08,0,.166.008.265h.138v1.8a12.687,12.687,0,0,1,0,1.9v2.744H34.787c0-6.739-1.641-20.958,5.771-22.848.146.636.554,1.115,1.582,1.681,2.089,1.151,4.18.83,6.273,0a2.024,2.024,0,0,0,1.574-2.417Z" transform="translate(-34.632 -262.834)" fill="#a61e22" fill-rule="evenodd"/>
          <path id="Path_1176051" data-name="Path 1176051" d="M69.405,291.48c5.279,1.515,6.857,10.168,8.748,14.708a16.086,16.086,0,0,1-5.173.83c-8.131,0-15.183-5.711-15.756-12.755-.008-.127-.015-.25-.024-.375a5.755,5.755,0,0,1,2.776-1.673c.146.636.554,1.115,1.582,1.681,2.089,1.151,4.18.83,6.273,0a2.024,2.024,0,0,0,1.574-2.417Z" transform="translate(-54.051 -262.834)" fill="#ba5455" fill-rule="evenodd"/>
          <path id="Path_1176052" data-name="Path 1176052" d="M76.546,249.02h9.4v4.169c0,2.3.645,3.326-1.491,4.173-2.093.83-4.184,1.151-6.273,0-2.013-1.1-1.634-1.875-1.634-4.173V249.02Z" transform="translate(-70.672 -226.298)" fill="#f598a2" fill-rule="evenodd"/>
          <path id="Path_1176053" data-name="Path 1176053" d="M70.941,162.62a6.789,6.789,0,0,1,6.771,6.771v3.318a6.771,6.771,0,0,1-13.542,0v-3.318A6.789,6.789,0,0,1,70.941,162.62Z" transform="translate(-60.049 -151.953)" fill="#f598a2" fill-rule="evenodd"/>
          <path id="Path_1176054" data-name="Path 1176054" d="M103.349,165.88a6.793,6.793,0,0,1,4.342,6.316v3.318a6.793,6.793,0,0,1-4.342,6.316,6.8,6.8,0,0,1-4.339-6.316V172.2A6.794,6.794,0,0,1,103.349,165.88Z" transform="translate(-90.028 -154.758)" fill="#f9b5b2" fill-rule="evenodd"/>
          <path id="Path_1176055" data-name="Path 1176055" d="M62.231,124.786a11.7,11.7,0,0,1-11,2.923,8.421,8.421,0,0,1-2.511,5.941,1.416,1.416,0,0,1-2.341-.58c-1.373-4.342-1.858-10.809,2.041-13.309a6.169,6.169,0,0,1,5.984-.38c4.544,1.293,4.695-3.242,7.724-2.274,2.708.869,2.684,6.019.106,7.679Z" transform="translate(-43.876 -112.672)" fill="#4d4d4e" fill-rule="evenodd"/>
        </g>
        <path id="Path_1176056" data-name="Path 1176056" d="M47.934,60.269a12.256,12.256,0,0,1-1.194,1,7.682,7.682,0,0,1,.871,3.555v3.318a7.729,7.729,0,0,1-2.393,5.588l.039,1.591a8.509,8.509,0,0,1,3.619,2.99l5.273-3.559a4.006,4.006,0,0,1,6.206,2.8,14.105,14.105,0,0,1,1.076-2.2.3.3,0,0,0-.06-.388c-.712-.688-1.4-1.19-1.4-2.313h0a2.256,2.256,0,0,1,.688-1.625l1.819-1.757a2.365,2.365,0,0,1,3.275,0l.7.681a.4.4,0,0,0,.491.063,13,13,0,1,1,15.04,0,.41.41,0,0,0,.491-.063c.728-.7,1.231-1.341,2.341-1.341a2.363,2.363,0,0,1,1.638.66l1.815,1.752a2.253,2.253,0,0,1,.692,1.63h0c0,1.764-1.8,2.119-1.459,2.7a14.207,14.207,0,0,1,1.511,3.52c.19.688,1.729-.321,3.009.918a2.271,2.271,0,0,1,.7,1.63v2.479a2.322,2.322,0,0,1-2.337,2.29v0h-1v0a.359.359,0,0,0-.375.257,14.155,14.155,0,0,1-1.511,3.52.3.3,0,0,0,.056.388c.716.692,1.4,1.183,1.4,2.313h0a2.257,2.257,0,0,1-.636,1.57c-.606.613-1.254,1.214-1.875,1.811a2.365,2.365,0,0,1-3.275,0l-.7-.681a.4.4,0,0,0-.494-.06,15.4,15.4,0,0,1-3.623,1.451.335.335,0,0,0-.276.328c0,1.013.11,1.807-.7,2.591a2.346,2.346,0,0,1-1.638.66H73.19a2.321,2.321,0,0,1-2.337-2.29v-.961a.33.33,0,0,0-.276-.328A15.392,15.392,0,0,1,66.957,95.3a.4.4,0,0,0-.494.06c-.728.7-1.231,1.341-2.341,1.341v0a2.5,2.5,0,0,1-.569-.067,3.749,3.749,0,0,1-3.287,1.688H51.775c-1.57,0-2.91-1.166-4-2.425l-.032,3.721a.971.971,0,0,1-.972.972H29.123a.973.973,0,0,1-.977-.972c0-1.048-.032-2.08-.063-3.2-.218-7.273-.53-17.888,5.754-20.332l.028-3.053a7.7,7.7,0,0,1-1.593-3.35,2.364,2.364,0,0,1-1.736-1.606,20.36,20.36,0,0,1-.882-8.713,7.869,7.869,0,0,1,3.33-5.711,7.16,7.16,0,0,1,6.841-.479,3.514,3.514,0,0,0,3.725-1.065c1.088-.957,2.065-1.824,3.962-1.214,3.528,1.136,3.563,7.25.42,9.377ZM45.082,62.31A12.68,12.68,0,0,1,37.216,63.6a9.422,9.422,0,0,1-2.721,5.458,2.921,2.921,0,0,1-.313.261,5.8,5.8,0,0,0,11.474-1.179V64.826A5.786,5.786,0,0,0,45.082,62.31Zm-3.125-.862a10.725,10.725,0,0,0,4.667-2.622.812.812,0,0,1,.174-.142c1.949-1.254,1.957-5.346.123-5.937-.847-.269-1.431.25-2.076.823-1.238,1.091-2.622,2.317-5.62,1.464h0a1.6,1.6,0,0,1-.151-.056,5.2,5.2,0,0,0-5.042.317,6,6,0,0,0-2.451,4.363,18.3,18.3,0,0,0,.815,7.834.435.435,0,0,0,.731.179,7.465,7.465,0,0,0,2.218-5.185.976.976,0,0,1,1.21-1.009,10.717,10.717,0,0,0,5.4-.029Zm1.33,13.641a7.7,7.7,0,0,1-7.474-.352c-.035,1.459-.229,2.112,1.132,2.859,1.8.992,3.611.681,5.45-.047C43.6,77.066,43.353,76.335,43.286,75.089Zm1.934,2.393c-.2.755-.748,1.332-2.112,1.875-2.365.938-4.753,1.242-7.1-.052A4.962,4.962,0,0,1,34.332,78c-5.319,2.419-4.37,13.952-4.243,20.639h15.7l0-1.851a11.616,11.616,0,0,0,0-1.692l-.008-1.423a.945.945,0,0,1-.138-.451c0-.02,0-.06,0-.114l-1.471-3.844A.975.975,0,1,1,46,88.572l1.471,3.84c.213.261.451.562.7.878,1.06,1.36,2.377,3.074,3.607,3.074l8.491,0a2.041,2.041,0,0,0,1.851-2.927,1.879,1.879,0,0,0-1.851-1.179H53.308a.967.967,0,0,1-.882-.565c-1.858-4.031-3.2-11.817-7.206-14.214Zm4.7,2.479a28.434,28.434,0,0,1,1.7,3.792l4.758-3.212a2.3,2.3,0,0,1,.522-.759,2.38,2.38,0,0,1,1.214-.625,2.05,2.05,0,0,0-2.884-2.788Zm2.386,5.691c.518,1.507,1.1,3.358,1.641,4.659H60.26a4.684,4.684,0,0,1,1.028.11c.127-.119.265-.25.138-.463a14.207,14.207,0,0,1-1.511-3.52c-.19-.688-1.729.321-3.009-.918a2.9,2.9,0,0,1-.7-2.507Zm10.729,5.719A4.181,4.181,0,0,1,64.2,94.74c.439-.091.918-1.257,2.242-1.423A2.339,2.339,0,0,1,67.9,93.6a13.468,13.468,0,0,0,3.164,1.265,2.286,2.286,0,0,1,1.74,2.214v.961a.363.363,0,0,0,.384.34h2.563a.364.364,0,0,0,.388-.34,3.288,3.288,0,0,1,.491-2.373,2.33,2.33,0,0,1,1.25-.8A13.468,13.468,0,0,0,81.041,93.6a2.354,2.354,0,0,1,2.792.356l.7.681a.429.429,0,0,0,.573,0l1.819-1.757a.316.316,0,0,0,.087-.222h0c0-.439-1.3-.894-1.483-2.242a2.253,2.253,0,0,1,.3-1.459,12.435,12.435,0,0,0,1.3-3.037A2.323,2.323,0,0,1,89.4,84.229v0h1v0a.363.363,0,0,0,.384-.336V81.413a.363.363,0,0,0-.384-.336,3.539,3.539,0,0,1-2.408-.463,2.319,2.319,0,0,1-.843-1.231,12.382,12.382,0,0,0-1.3-3.037,2.239,2.239,0,0,1,.375-2.792l.712-.684a.319.319,0,0,0,.087-.226h0a.344.344,0,0,0-.091-.222l-1.819-1.757a.429.429,0,0,0-.573,0c-.664.64-1.1,1.2-2.045,1.321-.957.123-1.455-.321-2.278-.707a3.058,3.058,0,0,0-.767,1.768,3.045,3.045,0,0,1,3.192,3.005h0a3.093,3.093,0,0,1-.34,1.408A8.947,8.947,0,0,1,81.158,89.1a9.65,9.65,0,0,1-13.333,0,8.952,8.952,0,0,1-.961-11.9,2.968,2.968,0,0,1-.17-.981h0a3.045,3.045,0,0,1,3-3.057h.123a3.01,3.01,0,0,0-.989-1.925c-.886.407-1.408.873-2.377.752-1.4-.179-1.8-1.431-2.33-1.431a.406.406,0,0,0-.289.11l-1.819,1.757a.329.329,0,0,0-.095.222h0c0,.435,1.3.9,1.483,2.242a2.253,2.253,0,0,1-.3,1.459,12.275,12.275,0,0,0-1.3,3.037,2.323,2.323,0,0,1-2.255,1.692h-1a.363.363,0,0,0-.384.336v2.479a.363.363,0,0,0,.384.336,3.544,3.544,0,0,1,2.408.463,2.319,2.319,0,0,1,.843,1.231,12.2,12.2,0,0,0,1.3,3.037,2.228,2.228,0,0,1-.057,2.411Zm28.412-35.33a.975.975,0,1,1,0,1.949H89.388a.975.975,0,1,1,0-1.949ZM57.318,57.992a.975.975,0,1,1,0-1.949h2.061a.975.975,0,1,1,0,1.949Zm1.843-7.7a.973.973,0,1,1,.89-1.731l1.783.918a.974.974,0,1,1-.894,1.731Zm5.874-5.893a.974.974,0,1,1,1.634-1.06L67.7,44.92a.974.974,0,0,1-1.634,1.06Zm8.373-2.317a.977.977,0,1,1,1.953,0v1.582a.977.977,0,0,1-1.953,0ZM82.1,43.334a.974.974,0,1,1,1.634,1.06L82.705,45.98a.974.974,0,0,1-1.634-1.06Zm6.618,5.221a.973.973,0,1,1,.89,1.731l-1.78.918a.974.974,0,1,1-.894-1.731ZM68.669,57.513a.973.973,0,0,1-1.134-1.582l4.41-3.171a.972.972,0,0,1,1.274.119l2.132,2.242,1.819-1.558-.384-.1a.975.975,0,1,1,.506-1.882l2.167.582a.966.966,0,0,1,.724.942h0v2.44a.977.977,0,1,1-1.953,0V55.22L75.922,57.2a.974.974,0,0,1-1.345-.067l-2.184-2.3Zm3.255,15.621v-9.31c0-1.345-2.643-1.345-2.643,0a1.148,1.148,0,0,0,1.024,1,.973.973,0,1,1-.353,1.914,2.906,2.906,0,0,1-.61-5.656c1.953-.684,4.533.317,4.533,2.744v9.287l1.183-.011V63.824c0-3.935,6.549-3.935,6.549,0a3.079,3.079,0,0,1-2.6,2.91.977.977,0,1,1-.367-1.918c1.431-.273,1.36-2-.308-2-.629,0-1.321.289-1.321,1v9.25l.479,0a5.026,5.026,0,0,1,2.535-4.117,11.046,11.046,0,1,0-10.9.127,5.022,5.022,0,0,1,2.634,4.057Zm7.273,5.98-9,.107a2.1,2.1,0,0,0,2.117,2.1l4.82-.056A2.093,2.093,0,0,0,79.2,79.114Zm-10.929-.261c-.043-.024-.087-.052-.131-.075A7.016,7.016,0,0,0,69.174,87.7a7.713,7.713,0,0,0,10.632,0,7.03,7.03,0,0,0,1.341-8.42,4.045,4.045,0,0,1-1.736,3.208,4.119,4.119,0,0,1-4.027,4.682l-1.19.02v0A4.12,4.12,0,0,1,70.073,82.6,4.038,4.038,0,0,1,68.269,78.853ZM79.592,74.99l-9.88.119a1.087,1.087,0,0,0-1.067,1.112h0a1.093,1.093,0,0,0,1.1,1.06l9.875-.114a1.09,1.09,0,0,0,1.072-1.112h0A1.1,1.1,0,0,0,79.592,74.99Zm-2.093,8.2-5.5.063a2.177,2.177,0,0,0,2.195,1.985v0l1.171-.013A2.18,2.18,0,0,0,77.5,83.192Z" transform="translate(0)"/>
      </g>
    </g>
  </g>
</svg>
