<svg xmlns="http://www.w3.org/2000/svg" xmlns:xlink="http://www.w3.org/1999/xlink" width="108" height="108" viewBox="0 0 108 108">
  <defs>
    <filter id="Path_904820" x="0" y="0" width="108" height="108" filterUnits="userSpaceOnUse">
      <feOffset dy="3" input="SourceAlpha"/>
      <feGaussianBlur stdDeviation="3" result="blur"/>
      <feFlood flood-opacity="0.161"/>
      <feComposite operator="in" in2="blur"/>
      <feComposite in="SourceGraphic"/>
    </filter>
  </defs>
  <g id="Group_1224325" data-name="Group 1224325" transform="translate(-619.507 -317)">
    <g id="Group_1223916" data-name="Group 1223916">
      <g id="Group_1221187" data-name="Group 1221187" transform="translate(-0.32)">
        <g id="Group_1220471" data-name="Group 1220471" transform="translate(628.827 323)">
          <g id="Group_1219977" data-name="Group 1219977" transform="translate(0 0)">
            <g id="Group_1219603" data-name="Group 1219603">
              <g id="Group_1202655" data-name="Group 1202655" transform="translate(0)">
                <g id="Group_1173585" data-name="Group 1173585">
                  <g id="Group_1173428" data-name="Group 1173428">
                    <g id="Group_1171958" data-name="Group 1171958">
                      <g id="Group_1167341" data-name="Group 1167341">
                        <g id="Group_1166792" data-name="Group 1166792">
                          <g transform="matrix(1, 0, 0, 1, -9, -6)" filter="url(#Path_904820)">
                            <g id="Path_904820-2" data-name="Path 904820" transform="translate(9 6)" fill="#f5f7fb">
                              <path d="M 44.99999618530273 88.49999237060547 C 39.12687301635742 88.49999237060547 33.43022155761719 87.35006713867188 28.06829643249512 85.08216857910156 C 22.88852119445801 82.89130401611328 18.23629570007324 79.75457763671875 14.24084663391113 75.75914001464844 C 10.24540901184082 71.76369476318359 7.108683586120605 67.11146545410156 4.917821407318115 61.93169403076172 C 2.649921178817749 56.56976699829102 1.499996185302734 50.87311553955078 1.499996185302734 44.99999237060547 C 1.499996185302734 39.12686920166016 2.649921178817749 33.43021774291992 4.917821407318115 28.06829261779785 C 7.108683586120605 22.88851737976074 10.24540901184082 18.23630523681641 14.24084663391113 14.24085521697998 C 18.23629570007324 10.24540519714355 22.88852119445801 7.108692169189453 28.06829643249512 4.917829990386963 C 33.43022155761719 2.649929761886597 39.12687301635742 1.500004887580872 44.99999618530273 1.500004887580872 C 50.87311935424805 1.500004887580872 56.56977081298828 2.649929761886597 61.93169784545898 4.917829990386963 C 67.11147308349609 7.108692169189453 71.76369476318359 10.24540519714355 75.75914764404297 14.24085521697998 C 79.75458526611328 18.23630523681641 82.89131164550781 22.88851737976074 85.08216857910156 28.06829261779785 C 87.35007476806641 33.43021774291992 88.5 39.12686920166016 88.5 44.99999237060547 C 88.5 50.87311553955078 87.35007476806641 56.56976699829102 85.08216857910156 61.93169403076172 C 82.89131164550781 67.11146545410156 79.75458526611328 71.76369476318359 75.75914764404297 75.75914001464844 C 71.76369476318359 79.75457763671875 67.11147308349609 82.89130401611328 61.93169784545898 85.08216857910156 C 56.56977081298828 87.35006713867188 50.87311935424805 88.49999237060547 44.99999618530273 88.49999237060547 Z" stroke="none"/>
                              <path d="M 44.99999618530273 2.999992370605469 C 39.32870864868164 2.999992370605469 33.82865142822266 4.11004638671875 28.65262603759766 6.299331665039062 C 23.65165710449219 8.414566040039062 19.15968322753906 11.44333648681641 15.301513671875 15.30150604248047 C 11.44333648681641 19.15967559814453 8.414566040039062 23.65164947509766 6.299339294433594 28.65262222290039 C 4.110054016113281 33.82864761352539 2.999992370605469 39.32870483398438 2.999992370605469 44.99999237060547 C 2.999992370605469 50.67127990722656 4.110054016113281 56.17132186889648 6.299339294433594 61.34736633300781 C 8.414566040039062 66.34833526611328 11.44333648681641 70.84029388427734 15.301513671875 74.69846343994141 C 19.15968322753906 78.55663299560547 23.65165710449219 81.58540344238281 28.65262603759766 83.70063781738281 C 33.82865142822266 85.88992309570312 39.32870864868164 86.99997711181641 44.99999618530273 86.99997711181641 C 50.67128372192383 86.99997711181641 56.17134094238281 85.88992309570312 61.34736633300781 83.70063781738281 C 66.34834289550781 81.58540344238281 70.84030914306641 78.55663299560547 74.69847869873047 74.69846343994141 C 78.55665588378906 70.84029388427734 81.58542633056641 66.34833526611328 83.70065307617188 61.34736633300781 C 85.88993835449219 56.17132186889648 87 50.67127990722656 87 44.99999237060547 C 87 39.32870483398438 85.88993835449219 33.82864761352539 83.70065307617188 28.65262222290039 C 81.58542633056641 23.65164947509766 78.55665588378906 19.15967559814453 74.69847869873047 15.30150604248047 C 70.84030914306641 11.44333648681641 66.34834289550781 8.414566040039062 61.34736633300781 6.299331665039062 C 56.17134094238281 4.11004638671875 50.67128372192383 2.999992370605469 44.99999618530273 2.999992370605469 M 44.99999618530273 -7.62939453125e-06 C 69.85281372070312 -7.62939453125e-06 90 20.14717864990234 90 44.99999237060547 C 90 69.85279083251953 69.85281372070312 89.99997711181641 44.99999618530273 89.99997711181641 C 20.14717864990234 89.99997711181641 -7.62939453125e-06 69.85279083251953 -7.62939453125e-06 44.99999237060547 C -7.62939453125e-06 20.14717864990234 20.14717864990234 -7.62939453125e-06 44.99999618530273 -7.62939453125e-06 Z" stroke="none" fill="#586577"/>
                            </g>
                          </g>
                        </g>
                      </g>
                    </g>
                  </g>
                </g>
              </g>
            </g>
          </g>
        </g>
      </g>
      <g id="idea-creativa" transform="translate(644.348 335)">
        <g id="Group_1223907" data-name="Group 1223907" transform="translate(13.675 10.539)">
          <g id="Group_1223906" data-name="Group 1223906">
            <path id="Path_1175432" data-name="Path 1175432" d="M48.773,39.5a17.468,17.468,0,0,1-15.291,6.55,11.231,11.231,0,0,0-9.022,3.127l-.056.056-9.958-9.958.058-.058a11.155,11.155,0,0,0,3.13-8.975A17.5,17.5,0,1,1,48.773,39.5Z" transform="translate(-14.446 -11.119)" fill="#ffd542"/>
          </g>
        </g>
        <g id="Group_1223908" data-name="Group 1223908" transform="translate(9.179 36.727)">
          <path id="Path_1175433" data-name="Path 1175433" d="M23.539,54.721,25.655,52.6a1.513,1.513,0,0,0,0-2.14L14.533,39.343a1.513,1.513,0,0,0-2.14,0l-2.116,2.116a2.051,2.051,0,0,0,0,2.9L20.638,54.721a2.051,2.051,0,0,0,2.9,0Z" transform="translate(-9.676 -38.899)" fill="#0e4a77"/>
        </g>
        <g id="Group_1223909" data-name="Group 1223909" transform="translate(1.914 42.614)">
          <path id="Path_1175434" data-name="Path 1175434" d="M19.778,54.652l-6.136,6.136L3.449,62.925A1.226,1.226,0,0,1,2,61.473L4.134,51.28l6.136-6.136Z" transform="translate(-1.97 -45.144)" fill="#f34c6e"/>
        </g>
        <g id="Group_1223910" data-name="Group 1223910" transform="translate(7.319 45.856)">
          <path id="Path_1175435" data-name="Path 1175435" d="M0,0H8.674V4.255H0Z" transform="translate(0 6.132) rotate(-45)" fill="#f34c6e"/>
        </g>
        <g id="Group_1223912" data-name="Group 1223912" transform="translate(1.91 48.845)">
          <g id="Group_1223911" data-name="Group 1223911" transform="translate(0)">
            <path id="Path_1175436" data-name="Path 1175436" d="M13.546,61.185,6.9,62.586l-3.448.722a1.239,1.239,0,0,1-1.458-1.458L2.714,58.4l1.4-6.649Z" transform="translate(-1.966 -51.754)" fill="#ffd542"/>
          </g>
        </g>
        <g id="Group_1223914" data-name="Group 1223914" transform="translate(1.91 55.494)">
          <g id="Group_1223913" data-name="Group 1223913" transform="translate(0)">
            <path id="Path_1175437" data-name="Path 1175437" d="M6.9,62.99l-3.448.722a1.239,1.239,0,0,1-1.458-1.458l.723-3.448A4.576,4.576,0,0,1,6.9,62.99Z" transform="translate(-1.966 -58.807)" fill="#073d6f"/>
          </g>
        </g>
        <g id="Group_1223915" data-name="Group 1223915" transform="translate(1 0.996)">
          <path id="Path_1175438" data-name="Path 1175438" d="M54.338,48.784a.914.914,0,1,0-1.293,1.293l2.394,2.394a.914.914,0,0,0,1.293-1.293Z" transform="translate(-3.967 -3.72)" fill="#003"/>
          <path id="Path_1175439" data-name="Path 1175439" d="M55.439,9.009,53.045,11.4A.914.914,0,1,0,54.338,12.7L56.732,10.3a.914.914,0,0,0-1.293-1.293Z" transform="translate(-3.967 -1.44)" fill="#003"/>
          <path id="Path_1175440" data-name="Path 1175440" d="M41.652,6.064a.912.912,0,0,0,1.12-.646l.876-3.27a.914.914,0,1,0-1.766-.473l-.876,3.27a.914.914,0,0,0,.646,1.12Z" transform="translate(-3.291 -0.996)" fill="#003"/>
          <path id="Path_1175441" data-name="Path 1175441" d="M27.323,5.418a.914.914,0,0,0,1.766-.473l-.877-3.27a.914.914,0,1,0-1.766.473Z" transform="translate(-2.456 -0.996)" fill="#003"/>
          <path id="Path_1175442" data-name="Path 1175442" d="M15.663,12.7A.914.914,0,1,0,16.956,11.4L14.562,9.009A.914.914,0,0,0,13.269,10.3Z" transform="translate(-1.688 -1.44)" fill="#003"/>
          <path id="Path_1175443" data-name="Path 1175443" d="M5.935,23.952l3.27.876a.914.914,0,0,0,.473-1.766l-3.27-.876a.914.914,0,1,0-.473,1.766Z" transform="translate(-1.244 -2.209)" fill="#003"/>
          <path id="Path_1175444" data-name="Path 1175444" d="M42.771,56.009a.914.914,0,1,0-1.766.473l.876,3.27a.914.914,0,0,0,1.766-.473Z" transform="translate(-3.291 -4.11)" fill="#003"/>
          <path id="Path_1175445" data-name="Path 1175445" d="M64.012,37.62l-3.27-.876a.914.914,0,0,0-.473,1.766l3.27.876a.914.914,0,0,0,.473-1.766Z" transform="translate(-4.358 -3.043)" fill="#003"/>
          <path id="Path_1175446" data-name="Path 1175446" d="M60.505,24.859a.911.911,0,0,0,.237-.032l3.27-.876a.914.914,0,0,0-.473-1.766l-3.27.876a.914.914,0,0,0,.236,1.8Z" transform="translate(-4.358 -2.209)" fill="#003"/>
          <path id="Path_1175447" data-name="Path 1175447" d="M51.726,30.308a.919.919,0,0,0-1.042.768A16.561,16.561,0,0,1,32.791,45.083a12.294,12.294,0,0,0-8.046,2.03l-2.35-2.35L32.928,34.23,34.6,35.9a4.194,4.194,0,0,0,5.924,0,4.2,4.2,0,1,0-5.934-5.934l-1.664,1.673-1.719-1.71,1.673-1.673a4.2,4.2,0,1,0-5.934-.009l1.673,1.682L18.1,40.457l-2.341-2.331a12.14,12.14,0,0,0,2.011-8.018,16.588,16.588,0,0,1,32.942-3.867.914.914,0,1,0,1.81-.247A18.415,18.415,0,0,0,15.95,30.271,10.37,10.37,0,0,1,14.4,36.808a2.443,2.443,0,0,0-3.145.238L9.129,39.167a2.957,2.957,0,0,0-.192,3.95l-5.5,5.513a.865.865,0,0,0-.247.457L2.812,50.87,1.038,59.282a2.15,2.15,0,0,0,.128,1.225,2.154,2.154,0,0,0,1.161,1.2,2.268,2.268,0,0,0,.823.155,2.339,2.339,0,0,0,.43-.037l8.567-1.81,1.627-.338a.9.9,0,0,0,.457-.247l5.5-5.5a2.976,2.976,0,0,0,1.856.667,2.939,2.939,0,0,0,2.094-.868L25.806,51.6a2.434,2.434,0,0,0,.219-3.163,10.57,10.57,0,0,1,6.6-1.536A18.4,18.4,0,0,0,52.494,31.35a.929.929,0,0,0-.768-1.042Zm-15.835.96a2.366,2.366,0,1,1,0,3.346l-1.673-1.682Zm-7.652-4.306a2.359,2.359,0,0,1,1.673-4.032,2.363,2.363,0,0,1,1.673,4.032L29.92,28.635Zm1.682,4.26,1.71,1.71L21.1,43.464l-1.71-1.71ZM10.208,44.434l1.957,1.957-4.9,4.891L5.317,49.334Zm3.246,3.246L15.173,49.4l-4.837,4.837L8.617,52.516ZM3.2,60.022a.3.3,0,0,1-.183-.009.581.581,0,0,1-.1-.073.565.565,0,0,1-.073-.11.27.27,0,0,1-.009-.174L4.6,51.208l7.049,7.049Zm10.322-2.478-1.957-1.957,4.891-4.9,1.966,1.966Zm10.98-7.232L22.4,52.424a1.165,1.165,0,0,1-1.609,0L10.428,42.066a1.131,1.131,0,0,1,0-1.609l2.112-2.112a.607.607,0,0,1,.85,0L24.508,49.462a.6.6,0,0,1,0,.85Z" transform="translate(-1 -1.521)" fill="#003"/>
        </g>
      </g>
    </g>
  </g>
</svg>
