<svg xmlns="http://www.w3.org/2000/svg" xmlns:xlink="http://www.w3.org/1999/xlink" width="113" height="113" viewBox="0 0 113 113">
  <defs>
    <filter id="Path_982547" x="0" y="0" width="113" height="113" filterUnits="userSpaceOnUse">
      <feOffset dy="3" input="SourceAlpha"/>
      <feGaussianBlur stdDeviation="3" result="blur"/>
      <feFlood flood-opacity="0.161"/>
      <feComposite operator="in" in2="blur"/>
      <feComposite in="SourceGraphic"/>
    </filter>
  </defs>
  <g id="Group_1224350" data-name="Group 1224350" transform="translate(-1163 -1458.633)">
    <g id="Group_1224275" data-name="Group 1224275" transform="translate(0 6)">
      <g id="Group_1224268" data-name="Group 1224268">
        <g id="Group_1223779" data-name="Group 1223779" transform="translate(0 -4451.031)">
          <g id="Group_1206283" data-name="Group 1206283" transform="translate(0 -3448.335)">
            <g id="Group_1203804" data-name="Group 1203804" transform="translate(-1 6552)">
              <g id="Group_1202426" data-name="Group 1202426" transform="translate(0.5 1464)">
                <g id="Group_1178323" data-name="Group 1178323" transform="translate(0 424)">
                  <g id="Group_1177681" data-name="Group 1177681" transform="translate(1172.5 918)">
                    <g id="Group_1172010" data-name="Group 1172010">
                      <g id="Group_1171046" data-name="Group 1171046">
                        <g id="Group_1148525" data-name="Group 1148525">
                          <g transform="matrix(1, 0, 0, 1, -9, -6)" filter="url(#Path_982547)">
                            <g id="Path_982547-2" data-name="Path 982547" transform="translate(9 6)" fill="#fdecc1">
                              <path d="M 47.5 93.5 C 41.28937149047852 93.5 35.26533508300781 92.28397369384766 29.59518623352051 89.88570404052734 C 24.11771965026855 87.56893157958984 19.19813346862793 84.25196075439453 14.97309303283691 80.02691650390625 C 10.74804019927979 75.80186462402344 7.431066513061523 70.88229370117188 5.114293098449707 65.40481567382812 C 2.716026782989502 59.73468017578125 1.5 53.71062850952148 1.5 47.5 C 1.5 41.28937149047852 2.716026782989502 35.26533508300781 5.114293098449707 29.59518623352051 C 7.431066513061523 24.11771965026855 10.74804019927979 19.19813346862793 14.97309303283691 14.97309303283691 C 19.19813346862793 10.74804019927979 24.11771965026855 7.431066513061523 29.59518623352051 5.114293098449707 C 35.26533508300781 2.716026782989502 41.28937149047852 1.5 47.5 1.5 C 53.71062850952148 1.5 59.73468017578125 2.716026782989502 65.40481567382812 5.114293098449707 C 70.88229370117188 7.431066513061523 75.80186462402344 10.74804019927979 80.02691650390625 14.97309303283691 C 84.25196075439453 19.19813346862793 87.56893157958984 24.11771965026855 89.88570404052734 29.59518623352051 C 92.28397369384766 35.26533508300781 93.5 41.28937149047852 93.5 47.5 C 93.5 53.71062850952148 92.28397369384766 59.73468017578125 89.88570404052734 65.40481567382812 C 87.56893157958984 70.88229370117188 84.25196075439453 75.80186462402344 80.02691650390625 80.02691650390625 C 75.80186462402344 84.25196075439453 70.88229370117188 87.56893157958984 65.40481567382812 89.88570404052734 C 59.73468017578125 92.28397369384766 53.71062850952148 93.5 47.5 93.5 Z" stroke="none"/>
                              <path d="M 47.5 3 C 41.49121475219727 3 35.66376876831055 4.176155090332031 30.17950439453125 6.495796203613281 C 24.88084411621094 8.736953735351562 20.12152099609375 11.94598388671875 16.03375244140625 16.03375244140625 C 11.94598388671875 20.12152099609375 8.736953735351562 24.88084411621094 6.495796203613281 30.17950439453125 C 4.176155090332031 35.66376876831055 3 41.49121475219727 3 47.5 C 3 53.50878524780273 4.176155090332031 59.33623123168945 6.495796203613281 64.82049560546875 C 8.736953735351562 70.11915588378906 11.94598388671875 74.87847900390625 16.03375244140625 78.96624755859375 C 20.12152099609375 83.05401611328125 24.88084411621094 86.26304626464844 30.17950439453125 88.50419616699219 C 35.66376876831055 90.82384490966797 41.49121475219727 92 47.5 92 C 53.50878524780273 92 59.33623123168945 90.82384490966797 64.82049560546875 88.50419616699219 C 70.11915588378906 86.26304626464844 74.87847900390625 83.05401611328125 78.96624755859375 78.96624755859375 C 83.05401611328125 74.87847900390625 86.26304626464844 70.11915588378906 88.50419616699219 64.82049560546875 C 90.82384490966797 59.33623123168945 92 53.50878524780273 92 47.5 C 92 41.49121475219727 90.82384490966797 35.66376876831055 88.50419616699219 30.17950439453125 C 86.26304626464844 24.88084411621094 83.05401611328125 20.12152099609375 78.96624755859375 16.03375244140625 C 74.87847900390625 11.94598388671875 70.11915588378906 8.736953735351562 64.82049560546875 6.495796203613281 C 59.33623123168945 4.176155090332031 53.50878524780273 3 47.5 3 M 47.5 0 C 73.7335205078125 0 95 21.2664794921875 95 47.5 C 95 73.7335205078125 73.7335205078125 95 47.5 95 C 21.2664794921875 95 0 73.7335205078125 0 47.5 C 0 21.2664794921875 21.2664794921875 0 47.5 0 Z" stroke="none" fill="#f8c234"/>
                            </g>
                          </g>
                        </g>
                      </g>
                    </g>
                  </g>
                </g>
              </g>
            </g>
          </g>
        </g>
      </g>
      <g id="proceso-de-aprendizaje" transform="translate(1160.102 1475.355)">
        <g id="Group_1224273" data-name="Group 1224273" transform="translate(33.497 0.902)">
          <g id="Group_1224271" data-name="Group 1224271" transform="translate(0)">
            <g id="Group_1224269" data-name="Group 1224269">
              <path id="Path_1176114" data-name="Path 1176114" d="M85.737,34.736c0,9.859-.618,28.435-9.632,28.373,0,0-2.334-.463-2.366-.465h0c-1.365-.33-1.464,1.448-1.424,1.484l-.772,2.692a.6.6,0,0,1-.578.435H49.494a.6.6,0,0,1-.59-.717l1.789-9.09a8.1,8.1,0,0,0-3.025-7.975,23.23,23.23,0,0,1-9.181-18.423c0-13.006,10.9-23.549,24.352-23.549A24.376,24.376,0,0,1,76.89,11.59C82.2,16.728,85.737,25.358,85.737,34.736Z" transform="translate(-38.487 -7.5)" fill="#d78878"/>
              <path id="Path_1176115" data-name="Path 1176115" d="M364.442,78.637l-1.21.647a1.609,1.609,0,0,0-.665,2.17l.567,1.072a1.845,1.845,0,0,1-.5,2.314l-.136.106a.646.646,0,0,0-.059.969l.073.072a1.842,1.842,0,0,1-.022,2.637l-.412.4a2.06,2.06,0,0,0-.631,1.41l-.02.606a3.387,3.387,0,0,1-4.054,3.2l-6-1.2a44.083,44.083,0,0,0,.785-51.519,25.176,25.176,0,0,1,9.312,12.79l1.2,3.8a9.993,9.993,0,0,1-.485,7.265l0,.011a4.364,4.364,0,0,0,.047,3.81l3.185,6.367a2.31,2.31,0,0,1-.976,3.069Z" transform="translate(-313.759 -37.43)" fill="#ca6e59"/>
            </g>
            <g id="Group_1224270" data-name="Group 1224270" transform="translate(5.636 4.852)">
              <path id="Path_1176116" data-name="Path 1176116" d="M99.653,83.435c-1.529.315-8.426-2.588-9.7-4.518a18.762,18.762,0,0,1,25.213-27.464c.783,1.773,4.928,6.039,4.8,8.048C118.859,76.935,114.885,80.293,99.653,83.435Z" transform="translate(-85.363 -47.86)" fill="#eaf6ff"/>
              <path id="Path_1176117" data-name="Path 1176117" d="M156.484,92.906a18.761,18.761,0,0,1-32.929,12.3,20.255,20.255,0,0,0,4.484.982,12.393,12.393,0,0,0,2.1.107c8.016-.537,8.562-2.624,12.046-5.416,1.225-.981,3-1.147,3.973-2.382a20.367,20.367,0,0,0,2.609-20.755A18.735,18.735,0,0,1,156.484,92.906Z" transform="translate(-118.963 -74.147)" fill="#d8ecfe"/>
            </g>
          </g>
          <g id="Group_1224272" data-name="Group 1224272" transform="translate(11.564 7.56)">
            <path id="Path_1176118" data-name="Path 1176118" d="M159.091,130.73v17.243c0,.33-.877.6-1.2.6h-8.323a.509.509,0,0,0-.332.124,2.543,2.543,0,0,1-1.673.631h-.172a2.537,2.537,0,0,1-.822-.138l-.068-.024a2.592,2.592,0,0,1-.783-.469.506.506,0,0,0-.331-.124H135.251a.589.589,0,0,1-.578-.6V130.73a.589.589,0,0,1,.578-.6h10.115a.565.565,0,0,0,.374-.14l.545-.475a.578.578,0,0,1,.287-.133.5.5,0,0,1,.085-.007H148.3a.574.574,0,0,1,.374.14l.545.475a.562.562,0,0,0,.372.14h8.3c.321,0,1.2.268,1.2.6Z" transform="translate(-134.673 -122.284)" fill="#73788c"/>
            <path id="Path_1176119" data-name="Path 1176119" d="M330.21,136.254V153.5a.589.589,0,0,1-.579.6h-1.815a.589.589,0,0,0,.579-.6V136.254a.589.589,0,0,0-.579-.6h1.815A.589.589,0,0,1,330.21,136.254Z" transform="translate(-304.594 -127.808)" fill="#5e6577"/>
            <path id="Path_1176120" data-name="Path 1176120" d="M178.251,119.4v15.334c0,.126-.94.581-1.034.652h-5.761a.875.875,0,0,0-.373.083.865.865,0,0,0-.188.118,1.912,1.912,0,0,1-.428.275l-.731-.239-1.094.239a1.912,1.912,0,0,1-.428-.275.876.876,0,0,0-.56-.2h-7.525a.365.365,0,0,1-.366-.364v-15.88a.364.364,0,0,1,.271-.352l.905-.245a14.121,14.121,0,0,1,7.342-.013l.565.15c-.13.156.445,1.122.445,1.338l.208,7.281.332-7.532c0-.226.555-.944.418-1.1l.512-.138a14.137,14.137,0,0,1,6.608-.186Z" transform="translate(-156.746 -112.31)" fill="#d8ecfe"/>
            <path id="Path_1176121" data-name="Path 1176121" d="M300.55,121.362v15.888c0,.2-.233.365-.521.365H297.6a.368.368,0,0,0,.219-.312V120.569c.543.08,1.085.176,1.622.289l.738.155c.22.046.371.189.371.349Z" transform="translate(-278.012 -114.535)" fill="#c4e2ff"/>
            <path id="Path_1176122" data-name="Path 1176122" d="M200.392,74.322c0,3.332-3.2,7.207-6.536,7.207-.885,0-1.954-.731-3.471-2.158a6.195,6.195,0,0,1,7.645-8.62C199.335,71.866,200.392,73.181,200.392,74.322Z" transform="translate(-183.097 -70.378)" fill="#ffe177"/>
            <path id="Path_1176123" data-name="Path 1176123" d="M207,79.3a6.164,6.164,0,0,1-1.575,4.126,7.474,7.474,0,0,0-1.5,4.457v.92l-6.233.021v-.875a7.494,7.494,0,0,0-1.471-4.491,6.164,6.164,0,0,1-.934-1.354,6.034,6.034,0,0,0,7.645-8.62A6.194,6.194,0,0,1,207,79.3Z" transform="translate(-187.998 -73.114)" fill="#ffd15b"/>
            <path id="Path_1176124" data-name="Path 1176124" d="M219.674,194.525l.9,1.673c0,1.066-.949,2.107-2.779,2.107a2.007,2.007,0,0,1-1.877-2v-1.776Z" transform="translate(-206.153 -179.599)" fill="#5e6577"/>
            <path id="Path_1176125" data-name="Path 1176125" d="M235.734,194.525V196.3a2.008,2.008,0,0,1-2.009,2.009h-2.061c-.044,0-.088,0-.132,0a2.006,2.006,0,0,0,1.876-2v-1.776Z" transform="translate(-219.888 -179.599)" fill="#4d5263"/>
            <path id="Path_1176126" data-name="Path 1176126" d="M210.64,176.086a1.543,1.543,0,0,1-.453,1.094,5.583,5.583,0,0,1-2.2.454h-3.87a1.549,1.549,0,0,1,0-3.1h3.87C208.838,174.537,210.64,175.231,210.64,176.086Z" transform="translate(-194.402 -162.014)" fill="#73788c"/>
            <path id="Path_1176127" data-name="Path 1176127" d="M251.5,176.086a1.548,1.548,0,0,1-1.549,1.549h-2.325a1.548,1.548,0,0,0,0-3.1h2.325A1.548,1.548,0,0,1,251.5,176.086Z" transform="translate(-234.042 -162.015)" fill="#5e6577"/>
          </g>
        </g>
        <g id="Group_1224274" data-name="Group 1224274" transform="translate(32.815 0)">
          <path id="Path_1176128" data-name="Path 1176128" d="M114.638,57.783A20.034,20.034,0,1,0,94.6,77.817,20.056,20.056,0,0,0,114.638,57.783ZM94.6,76.013a18.23,18.23,0,1,1,18.23-18.23A18.251,18.251,0,0,1,94.6,76.013Z" transform="translate(-69.55 -33.211)"/>
          <path id="Path_1176129" data-name="Path 1176129" d="M312.5,459.174l-2.676-.533a2.059,2.059,0,0,0-2.392,1.454l-1.082,3.775a.9.9,0,1,0,1.734.5l1.081-3.771a.263.263,0,0,1,.307-.186l2.676.533a.9.9,0,0,0,.353-1.769Z" transform="translate(-273.436 -403.463)"/>
          <path id="Path_1176130" data-name="Path 1176130" d="M87.012,38.636l-3.185-6.366a3.442,3.442,0,0,1-.037-3.023l.008-.017a10.874,10.874,0,0,0,.525-7.915l-1.2-3.8-.009-.026a26.1,26.1,0,0,0-9.3-12.989A25.05,25.05,0,0,0,58.9,0C46.083,0,35.3,9.279,33.816,21.584a.9.9,0,1,0,1.79.216c1.376-11.4,11.389-20,23.291-20,10.839,0,18.832,5.776,22.508,16.264l1.2,3.79a9.075,9.075,0,0,1-.441,6.611l-.007.016a5.234,5.234,0,0,0,.059,4.591L85.4,39.442a1.4,1.4,0,0,1-.6,1.871L83.6,41.96a2.516,2.516,0,0,0-1.038,3.387l.567,1.071A.94.94,0,0,1,82.87,47.6a1.607,1.607,0,0,0-.731,1.236,1.57,1.57,0,0,0,.528,1.263.94.94,0,0,1-.012,1.346l-.412.4a2.949,2.949,0,0,0-.908,2.029l-.021.606a2.485,2.485,0,0,1-2.976,2.347l-1.452-.29a.9.9,0,0,0-.353,1.769l1.451.289a4.288,4.288,0,0,0,5.133-4.052l.021-.6a1.154,1.154,0,0,1,.355-.793l.412-.4a2.744,2.744,0,0,0,.16-3.793,2.742,2.742,0,0,0,.655-3.377L84.152,44.5a.709.709,0,0,1,.293-.954l1.208-.648a3.194,3.194,0,0,0,1.358-4.268Z" transform="translate(-33.69 0)"/>
          <path id="Path_1176131" data-name="Path 1176131" d="M43.4,225.139a22.447,22.447,0,0,1-8.786-16.308.9.9,0,1,0-1.8.114A24.251,24.251,0,0,0,42.3,226.567a7.163,7.163,0,0,1,2.69,7.087l-1.929,9.807a.9.9,0,1,0,1.77.348L46.761,234A8.957,8.957,0,0,0,43.4,225.139Z" transform="translate(-32.815 -182.98)"/>
          <path id="Path_1176132" data-name="Path 1176132" d="M154.69,83.468a.9.9,0,0,0,.9-.9V73.514a1.485,1.485,0,0,0-1.474-1.492h-1.566v-.375a.9.9,0,0,0-.643-.864l-.769-.23a14.977,14.977,0,0,0-2.19-.477,7.014,7.014,0,0,0-13.82.012,15,15,0,0,0-1.832.374l-1.161.314a.9.9,0,0,0-.666.87v.375h-1.506a1.485,1.485,0,0,0-1.474,1.492V90.542a1.485,1.485,0,0,0,1.474,1.492h9.867a3.417,3.417,0,0,0,2.126.746h.169a3.418,3.418,0,0,0,2.126-.746h9.867a1.485,1.485,0,0,0,1.474-1.492V86.774a.9.9,0,1,0-1.8,0V90.23h-9.683a1.4,1.4,0,0,0-.92.345,1.618,1.618,0,0,1-1.06.4h-.169a1.618,1.618,0,0,1-1.06-.4,1.4,1.4,0,0,0-.92-.345h-9.683V73.825h1.176v3.14a.9.9,0,1,0,1.8,0V72.336l.495-.134c.423-.114.854-.2,1.287-.277a7,7,0,0,0,1.757,4.037,6.277,6.277,0,0,1,.687,1.185,2.425,2.425,0,0,0,.639,4.2v.322a2.889,2.889,0,0,0,2.885,2.885h.116v2.806a1.771,1.771,0,0,0-.975-.294h-6.891V81.173a.9.9,0,1,0-1.8,0v6.793a.9.9,0,0,0,.9.9h7.781a2.974,2.974,0,0,0,3.778,0h7.721a.9.9,0,0,0,.9-.9V73.825h1.236v8.741A.9.9,0,0,0,154.69,83.468ZM142.041,66.074a5.218,5.218,0,0,1,5.212,5.212,5.35,5.35,0,0,1-1.377,3.536,6.633,6.633,0,0,0-1.032,1.816h-1.9V73.833h1.137a.9.9,0,0,0,0-1.8h-3.914a.9.9,0,1,0,0,1.8h.974v2.805h-1.9a6.036,6.036,0,0,0-1.01-1.787,5.284,5.284,0,0,1-1.4-3.565A5.218,5.218,0,0,1,142.041,66.074ZM138.982,79.7a.627.627,0,0,1,0-1.255H145.1a.627.627,0,0,1,0,1.255Zm.96,1.971V81.5h4.2v.168a1.083,1.083,0,0,1-1.082,1.082h-2.036A1.083,1.083,0,0,1,139.942,81.668Zm10.808,5.4h-6.831a1.771,1.771,0,0,0-.975.294V84.553h.116a2.889,2.889,0,0,0,2.885-2.885v-.322a2.425,2.425,0,0,0,.643-4.2,6.679,6.679,0,0,1,.713-1.222,7,7,0,0,0,1.728-4.017,13.188,13.188,0,0,1,1.6.369l.125.037Z" transform="translate(-116.987 -56.543)"/>
        </g>
      </g>
    </g>
  </g>
</svg>
