<svg xmlns="http://www.w3.org/2000/svg" xmlns:xlink="http://www.w3.org/1999/xlink" width="108" height="108" viewBox="0 0 108 108">
  <defs>
    <filter id="Fondo" x="0" y="0" width="108" height="108" filterUnits="userSpaceOnUse">
      <feOffset dy="3" input="SourceAlpha"/>
      <feGaussianBlur stdDeviation="3" result="blur"/>
      <feFlood flood-opacity="0.161"/>
      <feComposite operator="in" in2="blur"/>
      <feComposite in="SourceGraphic"/>
    </filter>
  </defs>
  <g id="Group_1224339" data-name="Group 1224339" transform="translate(-618.421 -1543)">
    <g id="Group_1224127" data-name="Group 1224127">
      <g id="Group_1221210" data-name="Group 1221210" transform="translate(0 960)">
        <g id="Group_1220768" data-name="Group 1220768" transform="translate(5.32 126)">
          <g id="Group_1220472" data-name="Group 1220472" transform="translate(-1 162)">
            <g id="Group_1210004" data-name="Group 1210004" transform="translate(623.101 301)">
              <g id="Group_1143757" data-name="Group 1143757" transform="translate(0)">
                <g transform="matrix(1, 0, 0, 1, -9, -6)" filter="url(#Fondo)">
                  <g id="Fondo-2" data-name="Fondo" transform="translate(9 6)" fill="#e8fcf6">
                    <path d="M 44.99994277954102 88.49989318847656 C 39.1268310546875 88.49989318847656 33.43019104003906 87.34996795654297 28.06826782226562 85.08206939697266 C 22.88850593566895 82.89120483398438 18.23629188537598 79.75449371337891 14.24084281921387 75.75904083251953 C 10.24540519714355 71.76360321044922 7.108680248260498 67.11138153076172 4.917830467224121 61.93161773681641 C 2.649930238723755 56.56969451904297 1.50000524520874 50.87305450439453 1.50000524520874 44.99994277954102 C 1.50000524520874 39.1268310546875 2.649930238723755 33.43019104003906 4.917830467224121 28.06826782226562 C 7.108680248260498 22.88850593566895 10.24540519714355 18.23629188537598 14.24084281921387 14.24084281921387 C 18.23629188537598 10.24540519714355 22.88850593566895 7.108680248260498 28.06826782226562 4.917830467224121 C 33.43019104003906 2.649930238723755 39.1268310546875 1.50000524520874 44.99994277954102 1.50000524520874 C 50.87305450439453 1.50000524520874 56.56969451904297 2.649930238723755 61.93161773681641 4.917830467224121 C 67.11138153076172 7.108680248260498 71.76360321044922 10.24540519714355 75.75904083251953 14.24084281921387 C 79.75449371337891 18.23629188537598 82.89120483398438 22.88850593566895 85.08206939697266 28.06826782226562 C 87.34996795654297 33.43019104003906 88.49989318847656 39.1268310546875 88.49989318847656 44.99994277954102 C 88.49989318847656 50.87305450439453 87.34996795654297 56.56969451904297 85.08206939697266 61.93161773681641 C 82.89120483398438 67.11138153076172 79.75449371337891 71.76360321044922 75.75904083251953 75.75904083251953 C 71.76360321044922 79.75449371337891 67.11138153076172 82.89120483398438 61.93161773681641 85.08206939697266 C 56.56969451904297 87.34996795654297 50.87305450439453 88.49989318847656 44.99994277954102 88.49989318847656 Z" stroke="none"/>
                    <path d="M 44.99994277954102 3 C 39.32865524291992 3 33.82861328125 4.110054016113281 28.65258407592773 6.299331665039062 C 23.65162658691406 8.414558410644531 19.15966796875 11.44332885742188 15.30149841308594 15.30149841308594 C 11.44332885742188 19.15966796875 8.414558410644531 23.65162658691406 6.299331665039062 28.65258407592773 C 4.110054016113281 33.82861328125 3 39.32865524291992 3 44.99994277954102 C 3 50.67121505737305 4.110054016113281 56.17125701904297 6.299331665039062 61.34728622436523 C 8.414558410644531 66.34825897216797 11.44332885742188 70.8402099609375 15.30149841308594 74.69838714599609 C 19.15966796875 78.55655670166016 23.65162658691406 81.5853271484375 28.65258407592773 83.70055389404297 C 33.82861328125 85.88983154296875 39.32867050170898 86.99988555908203 44.99994277954102 86.99988555908203 C 50.67121505737305 86.99988555908203 56.17125701904297 85.88983154296875 61.34728622436523 83.70055389404297 C 66.34825897216797 81.5853271484375 70.8402099609375 78.55655670166016 74.69838714599609 74.69838714599609 C 78.55655670166016 70.8402099609375 81.5853271484375 66.34825897216797 83.70055389404297 61.34728622436523 C 85.88983154296875 56.17125701904297 86.99988555908203 50.67121505737305 86.99988555908203 44.99994277954102 C 86.99988555908203 39.32867050170898 85.88983154296875 33.82861328125 83.70055389404297 28.65258407592773 C 81.5853271484375 23.65162658691406 78.55655670166016 19.15966796875 74.69838714599609 15.30149841308594 C 70.8402099609375 11.44332885742188 66.34825897216797 8.414558410644531 61.34728622436523 6.299331665039062 C 56.17125701904297 4.110054016113281 50.67121505737305 3 44.99994277954102 3 M 44.99994277954102 0 C 69.85271453857422 0 89.99988555908203 20.14715576171875 89.99988555908203 44.99994277954102 C 89.99988555908203 69.85271453857422 69.85271453857422 89.99988555908203 44.99994277954102 89.99988555908203 C 20.14715576171875 89.99988555908203 0 69.85271453857422 0 44.99994277954102 C 0 20.14715576171875 20.14715576171875 0 44.99994277954102 0 Z" stroke="none" fill="#157d60"/>
                  </g>
                </g>
              </g>
            </g>
          </g>
        </g>
      </g>
      <g id="internet" transform="translate(643.971 1565.602)">
        <g id="Group_1224125" data-name="Group 1224125" transform="translate(0.89 0.832)">
          <g id="Group_1224090" data-name="Group 1224090" transform="translate(9.893 9.879)">
            <g id="Group_1224089" data-name="Group 1224089">
              <ellipse id="Ellipse_12499" data-name="Ellipse 12499" cx="17.662" cy="17.666" rx="17.662" ry="17.666" fill="#71d8fd"/>
            </g>
          </g>
          <g id="Group_1224092" data-name="Group 1224092" transform="translate(25.39 9.879)">
            <g id="Group_1224091" data-name="Group 1224091">
              <path id="Path_1175899" data-name="Path 1175899" d="M238.655,96.576a17.828,17.828,0,0,0-2.164.132,17.667,17.667,0,0,1,0,35.067,17.666,17.666,0,1,0,2.164-35.2Z" transform="translate(-236.491 -96.576)" fill="#60c3f7"/>
            </g>
          </g>
          <g id="Group_1224094" data-name="Group 1224094" transform="translate(0 0.18)">
            <g id="Group_1224093" data-name="Group 1224093">
              <ellipse id="Ellipse_12500" data-name="Ellipse 12500" cx="3.305" cy="3.306" rx="3.305" ry="3.306" fill="#ffcd74"/>
            </g>
          </g>
          <g id="Group_1224096" data-name="Group 1224096" transform="translate(48.51 0.18)">
            <g id="Group_1224095" data-name="Group 1224095">
              <ellipse id="Ellipse_12501" data-name="Ellipse 12501" cx="3.305" cy="3.306" rx="3.305" ry="3.306" fill="#ffcd74"/>
            </g>
          </g>
          <g id="Group_1224098" data-name="Group 1224098" transform="translate(0 48.45)">
            <g id="Group_1224097" data-name="Group 1224097">
              <ellipse id="Ellipse_12502" data-name="Ellipse 12502" cx="3.305" cy="3.306" rx="3.305" ry="3.306" fill="#ffcd74"/>
            </g>
          </g>
          <g id="Group_1224100" data-name="Group 1224100" transform="translate(0 24.26)">
            <g id="Group_1224099" data-name="Group 1224099">
              <ellipse id="Ellipse_12503" data-name="Ellipse 12503" cx="3.305" cy="3.306" rx="3.305" ry="3.306" fill="#b4e173"/>
            </g>
          </g>
          <g id="Group_1224102" data-name="Group 1224102" transform="translate(48.51 24.26)">
            <g id="Group_1224101" data-name="Group 1224101">
              <ellipse id="Ellipse_12504" data-name="Ellipse 12504" cx="3.305" cy="3.306" rx="3.305" ry="3.306" fill="#b4e173"/>
            </g>
          </g>
          <g id="Group_1224104" data-name="Group 1224104" transform="translate(24.249)">
            <g id="Group_1224103" data-name="Group 1224103">
              <ellipse id="Ellipse_12505" data-name="Ellipse 12505" cx="3.305" cy="3.306" rx="3.305" ry="3.306" fill="#b4e173"/>
            </g>
          </g>
          <g id="Group_1224106" data-name="Group 1224106" transform="translate(24.249 48.521)">
            <g id="Group_1224105" data-name="Group 1224105">
              <ellipse id="Ellipse_12506" data-name="Ellipse 12506" cx="3.305" cy="3.306" rx="3.305" ry="3.306" fill="#b4e173"/>
            </g>
          </g>
          <g id="Group_1224108" data-name="Group 1224108" transform="translate(48.51 48.45)">
            <g id="Group_1224107" data-name="Group 1224107">
              <ellipse id="Ellipse_12507" data-name="Ellipse 12507" cx="3.305" cy="3.306" rx="3.305" ry="3.306" fill="#ffcd74"/>
            </g>
          </g>
          <g id="Group_1224110" data-name="Group 1224110" transform="translate(2.243 0.18)">
            <g id="Group_1224109" data-name="Group 1224109">
              <path id="Path_1175900" data-name="Path 1175900" d="M32.151,12.43a3.305,3.305,0,0,1-4.368,3.13,3.3,3.3,0,0,0,0-6.26,3.3,3.3,0,0,1,4.368,3.13Z" transform="translate(-27.783 -9.124)" fill="#ff9650"/>
            </g>
          </g>
          <g id="Group_1224112" data-name="Group 1224112" transform="translate(50.753 0.18)">
            <g id="Group_1224111" data-name="Group 1224111">
              <path id="Path_1175901" data-name="Path 1175901" d="M469.549,12.43a3.3,3.3,0,0,1-4.367,3.13,3.305,3.305,0,0,0,0-6.26,3.3,3.3,0,0,1,4.367,3.13Z" transform="translate(-465.182 -9.124)" fill="#ff9650"/>
            </g>
          </g>
          <g id="Group_1224114" data-name="Group 1224114" transform="translate(2.243 48.451)">
            <g id="Group_1224113" data-name="Group 1224113">
              <path id="Path_1175902" data-name="Path 1175902" d="M32.151,447.673a3.305,3.305,0,0,1-4.368,3.13,3.3,3.3,0,0,0,0-6.26,3.305,3.305,0,0,1,4.368,3.13Z" transform="translate(-27.783 -444.368)" fill="#ff9650"/>
            </g>
          </g>
          <g id="Group_1224116" data-name="Group 1224116" transform="translate(2.243 24.261)">
            <g id="Group_1224115" data-name="Group 1224115">
              <path id="Path_1175903" data-name="Path 1175903" d="M32.151,229.558a3.306,3.306,0,0,1-3.306,3.306,3.272,3.272,0,0,1-1.062-.176,3.3,3.3,0,0,0,0-6.26,3.305,3.305,0,0,1,4.368,3.13Z" transform="translate(-27.783 -226.252)" fill="#87b45f"/>
            </g>
          </g>
          <g id="Group_1224118" data-name="Group 1224118" transform="translate(50.753 24.261)">
            <g id="Group_1224117" data-name="Group 1224117">
              <path id="Path_1175904" data-name="Path 1175904" d="M469.549,229.558a3.305,3.305,0,0,1-3.3,3.306,3.272,3.272,0,0,1-1.062-.176,3.305,3.305,0,0,0,0-6.26,3.3,3.3,0,0,1,4.367,3.13Z" transform="translate(-465.182 -226.252)" fill="#87b45f"/>
            </g>
          </g>
          <g id="Group_1224120" data-name="Group 1224120" transform="translate(26.492 0)">
            <g id="Group_1224119" data-name="Group 1224119">
              <path id="Path_1175905" data-name="Path 1175905" d="M250.8,10.807a3.306,3.306,0,0,1-3.3,3.307,3.272,3.272,0,0,1-1.062-.176,3.306,3.306,0,0,0,0-6.261,3.3,3.3,0,0,1,4.367,3.13Z" transform="translate(-246.432 -7.501)" fill="#87b45f"/>
            </g>
          </g>
          <g id="Group_1224122" data-name="Group 1224122" transform="translate(26.492 48.521)">
            <g id="Group_1224121" data-name="Group 1224121">
              <path id="Path_1175906" data-name="Path 1175906" d="M250.8,448.308a3.305,3.305,0,0,1-3.3,3.306,3.272,3.272,0,0,1-1.062-.176,3.305,3.305,0,0,0,0-6.26,3.3,3.3,0,0,1,4.367,3.13Z" transform="translate(-246.432 -445.002)" fill="#87b45f"/>
            </g>
          </g>
          <g id="Group_1224124" data-name="Group 1224124" transform="translate(50.753 48.451)">
            <g id="Group_1224123" data-name="Group 1224123">
              <path id="Path_1175907" data-name="Path 1175907" d="M469.549,447.673a3.3,3.3,0,0,1-4.367,3.13,3.305,3.305,0,0,0,0-6.26,3.3,3.3,0,0,1,4.367,3.13Z" transform="translate(-465.182 -444.368)" fill="#ff9650"/>
            </g>
          </g>
        </g>
        <g id="Group_1224126" data-name="Group 1224126" transform="translate(0.058)">
          <path id="Path_1175908" data-name="Path 1175908" d="M247.924,285.352a.894.894,0,1,0,.894.894A.895.895,0,0,0,247.924,285.352Z" transform="translate(-219.639 -253.705)"/>
          <path id="Path_1175909" data-name="Path 1175909" d="M231.6,258.7a3.888,3.888,0,0,0-2.746,1.127.832.832,0,1,0,1.168,1.184,2.243,2.243,0,0,1,3.2.05.832.832,0,0,0,1.206-1.146A3.924,3.924,0,0,0,231.6,258.7Z" transform="translate(-203.256 -230.006)"/>
          <path id="Path_1175910" data-name="Path 1175910" d="M219.548,233.574a6.921,6.921,0,0,0-9.826-.092.832.832,0,0,0,1.17,1.182,5.257,5.257,0,0,1,7.464.07.832.832,0,0,0,1.192-1.16Z" transform="translate(-186.25 -205.809)"/>
          <path id="Path_1175911" data-name="Path 1175911" d="M202.932,207.43a.832.832,0,0,0,1.187-1.166,10.05,10.05,0,0,0-14.237-.1.832.832,0,1,0,1.169,1.183,8.386,8.386,0,0,1,11.88.084Z" transform="translate(-168.61 -180.716)"/>
          <path id="Path_1175912" data-name="Path 1175912" d="M4.195,227.025a4.138,4.138,0,1,0-4.137-4.138A4.142,4.142,0,0,0,4.195,227.025Zm0-6.612a2.474,2.474,0,1,1-2.473,2.474A2.477,2.477,0,0,1,4.195,220.414Z" transform="translate(-0.058 -194.489)"/>
          <path id="Path_1175913" data-name="Path 1175913" d="M441.591,218.75a4.138,4.138,0,1,0,4.137,4.138A4.142,4.142,0,0,0,441.591,218.75Zm0,6.612a2.474,2.474,0,1,1,2.473-2.474A2.477,2.477,0,0,1,441.591,225.362Z" transform="translate(-388.944 -194.489)"/>
          <path id="Path_1175914" data-name="Path 1175914" d="M222.841,8.276A4.138,4.138,0,1,0,218.7,4.138,4.142,4.142,0,0,0,222.841,8.276Zm0-6.612a2.474,2.474,0,1,1-2.473,2.474A2.477,2.477,0,0,1,222.841,1.664Z" transform="translate(-194.455)"/>
          <path id="Path_1175915" data-name="Path 1175915" d="M222.841,437.5a4.138,4.138,0,1,0,4.137,4.138A4.142,4.142,0,0,0,222.841,437.5Zm0,6.612a2.474,2.474,0,1,1,2.473-2.474A2.477,2.477,0,0,1,222.841,444.111Z" transform="translate(-194.455 -388.978)"/>
          <path id="Path_1175916" data-name="Path 1175916" d="M52.7,49.891a4.112,4.112,0,0,0-2.126.59l-8.284-8.422a18.463,18.463,0,0,0,.02-24.461l8.2-8.333a4.145,4.145,0,1,0-1.2-1.148L41.161,16.4a18.486,18.486,0,0,0-20.444-3.392.832.832,0,1,0,.7,1.511,16.8,16.8,0,0,1,1.937-.75,14.137,14.137,0,0,0-2.216,3.17,22.207,22.207,0,0,0-1.66,4.207,22.265,22.265,0,0,0-3.9,1.529,14.032,14.032,0,0,0-3.233,2.219,16.775,16.775,0,0,1,1.1-2.721,16.99,16.99,0,0,1,4.9-5.821.832.832,0,1,0-1-1.33,18.475,18.475,0,0,0-1.617,1.369L7.59,8.118a4.141,4.141,0,1,0-1.2,1.147l8.187,8.323a18.574,18.574,0,0,0-2.608,3.826A18.491,18.491,0,0,0,14.6,42.063L6.318,50.479A4.149,4.149,0,1,0,7.545,51.6l8.209-8.346a18.424,18.424,0,0,0,12.679,5.055h.023a18.425,18.425,0,0,0,12.683-5.059l8.215,8.351A4.135,4.135,0,1,0,52.7,49.891ZM1.722,5.758A2.473,2.473,0,1,1,4.195,8.232,2.477,2.477,0,0,1,1.722,5.758ZM32.976,38.584a.832.832,0,0,0,.955.687q.818-.133,1.6-.3a19.719,19.719,0,0,1-1.245,2.954c-1.4,2.656-3.151,4.273-5.007,4.646V39.694c.47-.011.94-.03,1.4-.059a.832.832,0,1,0-.1-1.66c-.7.044-1.419.067-2.13.067a31.219,31.219,0,0,1-7.613-.9,31.8,31.8,0,0,1,0-14.64,31.22,31.22,0,0,1,7.613-.9,31.219,31.219,0,0,1,7.612.9,31.8,31.8,0,0,1,0,14.637q-1.147.291-2.394.5A.832.832,0,0,0,32.976,38.584ZM12.352,34.75a14.043,14.043,0,0,0,3.224,2.211,22.263,22.263,0,0,0,3.9,1.529,22.2,22.2,0,0,0,1.66,4.207,14.147,14.147,0,0,0,2.211,3.164A16.907,16.907,0,0,1,12.352,34.75Zm5.972-4.1A32.491,32.491,0,0,0,19,36.6a19.747,19.747,0,0,1-2.668-1.118c-2.638-1.353-4.248-3.044-4.631-4.832h6.62Zm3.036,8.32a33.1,33.1,0,0,0,6.251.726v6.872c-1.856-.374-3.609-1.99-5.007-4.646A19.737,19.737,0,0,1,21.361,38.969ZM34.283,17.713a19.731,19.731,0,0,1,1.244,2.952,33.1,33.1,0,0,0-6.252-.726V13.067C31.131,13.44,32.885,15.057,34.283,17.713Zm4.281,11.272a32.492,32.492,0,0,0-.679-5.95,19.754,19.754,0,0,1,2.668,1.118c2.638,1.353,4.248,3.044,4.631,4.832Zm0,1.664h6.619c-.522,2.393-3.261,4.582-7.3,5.947A32.5,32.5,0,0,0,38.564,30.649ZM52.7,3.284a2.474,2.474,0,1,1-2.473,2.474A2.477,2.477,0,0,1,52.7,3.284Zm-8.168,21.6a14.043,14.043,0,0,0-3.224-2.211,22.263,22.263,0,0,0-3.9-1.529,22.207,22.207,0,0,0-1.66-4.207,14.15,14.15,0,0,0-2.211-3.164A16.907,16.907,0,0,1,44.536,24.884ZM22.605,17.713c1.4-2.656,3.151-4.272,5.007-4.646v6.872a33.1,33.1,0,0,0-6.251.726A19.709,19.709,0,0,1,22.605,17.713Zm-6.27,6.44A19.759,19.759,0,0,1,19,23.035a32.491,32.491,0,0,0-.679,5.95H11.7C12.087,27.2,13.7,25.506,16.335,24.153ZM4.195,56.5a2.474,2.474,0,1,1,2.473-2.474A2.477,2.477,0,0,1,4.195,56.5ZM33.544,45.86A14.142,14.142,0,0,0,35.755,42.7a22.207,22.207,0,0,0,1.66-4.208,17.538,17.538,0,0,0,7.127-3.759A16.906,16.906,0,0,1,33.544,45.86ZM52.7,56.5a2.474,2.474,0,1,1,2.473-2.474A2.477,2.477,0,0,1,52.7,56.5Z" transform="translate(-0.058 -1.44)"/>
        </g>
      </g>
    </g>
  </g>
</svg>
