<svg xmlns="http://www.w3.org/2000/svg" xmlns:xlink="http://www.w3.org/1999/xlink" width="103" height="103" viewBox="0 0 103 103">
  <defs>
    <filter id="Path_978624" x="0" y="0" width="103" height="103" filterUnits="userSpaceOnUse">
      <feOffset dy="3" input="SourceAlpha"/>
      <feGaussianBlur stdDeviation="3" result="blur"/>
      <feFlood flood-opacity="0.161"/>
      <feComposite operator="in" in2="blur"/>
      <feComposite in="SourceGraphic"/>
    </filter>
  </defs>
  <g id="Group_1224355" data-name="Group 1224355" transform="translate(-157 -1166)">
    <g id="Group_1224321" data-name="Group 1224321">
      <g id="Group_1223797" data-name="Group 1223797" transform="translate(1 110.939)">
        <g id="Group_1220602" data-name="Group 1220602" transform="translate(165 1054.061)">
          <g id="Group_1214503" data-name="Group 1214503" transform="translate(0 7)">
            <g id="Group_1211421" data-name="Group 1211421">
              <g id="Group_1208651" data-name="Group 1208651">
                <g id="Group_1178144" data-name="Group 1178144">
                  <g id="Group_1177896" data-name="Group 1177896">
                    <g id="Group_1176881" data-name="Group 1176881">
                      <g id="Group_1175148" data-name="Group 1175148">
                        <g id="Group_1173798" data-name="Group 1173798">
                          <g id="Group_1171925" data-name="Group 1171925">
                            <g id="Group_1164524" data-name="Group 1164524">
                              <g id="Group_1144123" data-name="Group 1144123">
                                <g transform="matrix(1, 0, 0, 1, -9, -6)" filter="url(#Path_978624)">
                                  <g id="Path_978624-2" data-name="Path 978624" transform="translate(9 6)" fill="#f5f7fb">
                                    <path d="M 42.5 83.5 C 36.96437835693359 83.5 31.59512901306152 82.41617584228516 26.54141235351562 80.27863311767578 C 21.65934181213379 78.21369171142578 17.27447128295898 75.25723266601562 13.50862312316895 71.49137878417969 C 9.742764472961426 67.72553253173828 6.786305904388428 63.34066009521484 4.721364498138428 58.45858764648438 C 2.583823442459106 53.40486907958984 1.5 48.03562164306641 1.5 42.5 C 1.5 36.96437835693359 2.583823442459106 31.59512901306152 4.721364498138428 26.54141235351562 C 6.786305904388428 21.65934181213379 9.742764472961426 17.27447128295898 13.50862312316895 13.50862312316895 C 17.27447128295898 9.742764472961426 21.65934181213379 6.786305904388428 26.54141235351562 4.721364498138428 C 31.59512901306152 2.583823442459106 36.96437835693359 1.5 42.5 1.5 C 48.03562164306641 1.5 53.40486907958984 2.583823442459106 58.45858764648438 4.721364498138428 C 63.34066009521484 6.786305904388428 67.72553253173828 9.742764472961426 71.49137878417969 13.50862312316895 C 75.25723266601562 17.27447128295898 78.21369171142578 21.65934181213379 80.27863311767578 26.54141235351562 C 82.41617584228516 31.59512901306152 83.5 36.96437835693359 83.5 42.5 C 83.5 48.03562164306641 82.41617584228516 53.40486907958984 80.27863311767578 58.45858764648438 C 78.21369171142578 63.34066009521484 75.25723266601562 67.72553253173828 71.49137878417969 71.49137878417969 C 67.72553253173828 75.25723266601562 63.34066009521484 78.21369171142578 58.45858764648438 80.27863311767578 C 53.40486907958984 82.41617584228516 48.03562164306641 83.5 42.5 83.5 Z" stroke="none"/>
                                    <path d="M 42.5 3 C 37.16621398925781 3 31.99356079101562 4.043960571289062 27.125732421875 6.102882385253906 C 22.42246627807617 8.092185974121094 18.19785308837891 10.94070434570312 14.56928253173828 14.56928253173828 C 10.94070434570312 18.19785308837891 8.092185974121094 22.42246627807617 6.102882385253906 27.125732421875 C 4.043960571289062 31.99356079101562 3 37.16621398925781 3 42.5 C 3 47.83378601074219 4.043960571289062 53.00643920898438 6.102882385253906 57.87425231933594 C 8.092185974121094 62.57753372192383 10.94070434570312 66.80213165283203 14.56928253173828 70.43071746826172 C 18.19786834716797 74.05929565429688 22.42246627807617 76.90781402587891 27.125732421875 78.89711761474609 C 31.99356079101562 80.95603942871094 37.16621398925781 82 42.5 82 C 47.83378601074219 82 53.00642395019531 80.95603942871094 57.87425231933594 78.89711761474609 C 62.57753372192383 76.90781402587891 66.80213165283203 74.05929565429688 70.43071746826172 70.43071746826172 C 74.05929565429688 66.80213165283203 76.90781402587891 62.57753372192383 78.89711761474609 57.87425231933594 C 80.95603942871094 53.00642395019531 82 47.83378601074219 82 42.5 C 82 37.16621398925781 80.95603942871094 31.99356079101562 78.89711761474609 27.125732421875 C 76.90781402587891 22.42246627807617 74.05929565429688 18.19786834716797 70.43071746826172 14.56928253173828 C 66.80213165283203 10.94070434570312 62.57753372192383 8.092185974121094 57.87425231933594 6.102882385253906 C 53.00643920898438 4.043960571289062 47.83378601074219 3 42.5 3 M 42.5 0 C 65.97209167480469 0 85 19.02789306640625 85 42.5 C 85 65.97209167480469 65.97209167480469 85 42.5 85 C 19.02789306640625 85 0 65.97209167480469 0 42.5 C 0 19.02789306640625 19.02789306640625 0 42.5 0 Z" stroke="none" fill="#586577"/>
                                  </g>
                                </g>
                              </g>
                            </g>
                          </g>
                        </g>
                      </g>
                    </g>
                  </g>
                </g>
              </g>
            </g>
          </g>
        </g>
      </g>
      <g id="aprendizaje-electronico" transform="translate(181.069 1186.681)">
        <rect id="Rectangle_421383" data-name="Rectangle 421383" width="51.038" height="46.554" rx="6.58" transform="translate(1.912 4.542)" fill="#fff"/>
        <path id="Path_1176300" data-name="Path 1176300" d="M47.342,51.949H7.521A6.469,6.469,0,0,1,1.06,45.488V10.151A6.469,6.469,0,0,1,7.521,3.69H47.342A6.469,6.469,0,0,1,53.8,10.151V45.488a6.469,6.469,0,0,1-6.461,6.461ZM7.521,5.395a4.756,4.756,0,0,0-4.756,4.756V45.488a4.756,4.756,0,0,0,4.756,4.756H47.342A4.756,4.756,0,0,0,52.1,45.488V10.151a4.756,4.756,0,0,0-4.756-4.756Z" transform="translate(0 0)"/>
        <path id="Path_1176301" data-name="Path 1176301" d="M53.1,10.3v5.3H2.06V10.3A5.608,5.608,0,0,1,7.668,4.69H47.489A5.608,5.608,0,0,1,53.1,10.3Z" transform="translate(-0.148 -0.148)" fill="#348fd9"/>
        <path id="Path_1176302" data-name="Path 1176302" d="M52.95,16.3H1.912a.852.852,0,0,1-.852-.852v-5.3A6.469,6.469,0,0,1,7.521,3.69H47.342A6.469,6.469,0,0,1,53.8,10.151v5.3a.852.852,0,0,1-.852.852ZM2.765,14.6H52.1V10.151a4.756,4.756,0,0,0-4.756-4.756H7.521a4.756,4.756,0,0,0-4.756,4.756V14.6Z" transform="translate(0 0)"/>
        <path id="Path_1176303" data-name="Path 1176303" d="M59.787,10.3v5.3H47.36V4.69h6.819A5.608,5.608,0,0,1,59.787,10.3Z" transform="translate(-6.837 -0.148)" fill="#e64d40"/>
        <path id="Path_1176304" data-name="Path 1176304" d="M59.639,16.3H47.212a.852.852,0,0,1-.852-.852V4.542a.852.852,0,0,1,.852-.852h6.819a6.469,6.469,0,0,1,6.461,6.461v5.3a.852.852,0,0,1-.852.852ZM48.065,14.6H58.787V10.151a4.756,4.756,0,0,0-4.756-4.756H48.065Z" transform="translate(-6.689)"/>
        <g id="Group_1224320" data-name="Group 1224320" transform="translate(8.663 8.599)">
          <circle id="Ellipse_12524" data-name="Ellipse 12524" cx="1.398" cy="1.398" r="1.398" fill="#fff"/>
          <circle id="Ellipse_12525" data-name="Ellipse 12525" cx="1.398" cy="1.398" r="1.398" transform="translate(15.887)" fill="#fff"/>
          <circle id="Ellipse_12526" data-name="Ellipse 12526" cx="1.398" cy="1.398" r="1.398" transform="translate(7.944)" fill="#fff"/>
        </g>
        <path id="Path_1176305" data-name="Path 1176305" d="M11.23,12.95a2.25,2.25,0,1,1,2.25-2.25,2.25,2.25,0,0,1-2.25,2.25Zm0-2.8a.541.541,0,1,1,0,.009Z" transform="translate(-1.17 -0.703)"/>
        <path id="Path_1176306" data-name="Path 1176306" d="M29.87,12.95a2.25,2.25,0,1,1,2.25-2.25,2.25,2.25,0,0,1-2.25,2.25Zm0-2.8a.541.541,0,1,1,0,.009Z" transform="translate(-3.922 -0.703)"/>
        <path id="Path_1176307" data-name="Path 1176307" d="M20.55,12.95A2.25,2.25,0,1,1,22.8,10.7a2.25,2.25,0,0,1-2.25,2.25Zm0-2.8a.541.541,0,1,1,0,.009Z" transform="translate(-2.546 -0.703)"/>
        <path id="Path_1176308" data-name="Path 1176308" d="M43.793,32.447l-5.6,2.48L28.059,39.436v.051L17.831,34.935l-5.5-2.412a.852.852,0,0,1,0-1.492L28.059,24l15.734,6.981a.852.852,0,0,1,0,1.466Z" transform="translate(-1.6 -2.999)" fill="#44546c"/>
        <path id="Path_1176309" data-name="Path 1176309" d="M39.33,36.83V44.1s-5.642-.051-9.546,3.281a1.082,1.082,0,0,1-1.4,0c-3.9-3.333-9.546-3.281-9.546-3.281V36.83l10.228,4.551V41.33L39.2,36.83h.111Z" transform="translate(-2.626 -4.894)" fill="#44546c"/>
        <path id="Path_1176310" data-name="Path 1176310" d="M51.162,41.1A1.581,1.581,0,0,1,48,41.1a1.581,1.581,0,1,1,3.162,0Z" transform="translate(-6.932 -5.29)" fill="#44546c"/>
        <path id="Path_1176311" data-name="Path 1176311" d="M27.877,40.184a.767.767,0,0,1-.307-.068L11.836,33.136a1.7,1.7,0,0,1,0-3.051L27.4,23.172h.051a.852.852,0,0,1,.852-.085l15.734,6.981a1.7,1.7,0,0,1,0,3.051L28.423,40h-.051a.921.921,0,0,1-.494.188Zm.094-15.393L12.527,31.61l5.489,2.369,9.844,4.364L43.3,31.525Zm15.674,7.518-.349-.784Z" transform="translate(-1.452 -2.853)"/>
        <path id="Path_1176312" data-name="Path 1176312" d="M28.937,48.335a1.926,1.926,0,0,1-1.253-.435c-3.614-3.085-8.941-3.077-8.984-3.077a.858.858,0,0,1-.861-.852v-7.3a.852.852,0,0,1,1.2-.776l9.844,4.33,9.844-4.372a.852.852,0,0,1,.349-.077h.111a.852.852,0,0,1,.852.852v7.279a.852.852,0,0,1-.256.605.75.75,0,0,1-.605.247c-.077,0-5.387,0-8.984,3.077a1.926,1.926,0,0,1-1.261.494Zm-9.376-5.208a16.506,16.506,0,0,1,9.248,3.452.23.23,0,0,0,.29,0,16.421,16.421,0,0,1,9.248-3.452V37.936l-8.9,3.946H29.4a.852.852,0,0,1-.852.085l-8.992-3.98V43.1Z" transform="translate(-2.478 -4.739)"/>
        <path id="Path_1176313" data-name="Path 1176313" d="M49.732,39.281a.852.852,0,0,1-.852-.852V32.922a.852.852,0,1,1,1.7,0v5.506A.852.852,0,0,1,49.732,39.281Z" transform="translate(-7.062 -4.191)"/>
        <path id="Path_1176314" data-name="Path 1176314" d="M49.455,43.364a2.344,2.344,0,0,1-1.219-.341A2.369,2.369,0,0,1,47,40.952a2.412,2.412,0,1,1,4.824,0,2.387,2.387,0,0,1-1.227,2.1,2.31,2.31,0,0,1-1.142.315Zm0-3.137a.716.716,0,0,0-.707.716.673.673,0,0,0,.341.605.656.656,0,0,0,.7,0,.69.69,0,0,0,.375-.622.716.716,0,0,0-.707-.7Z" transform="translate(-6.784 -5.146)"/>
        <path id="Path_1176315" data-name="Path 1176315" d="M51.488,48.966a2.046,2.046,0,0,1-.673,1.619l-.418.366a1.278,1.278,0,0,1-1.7,0l-.409-.366a2.046,2.046,0,0,1-.673-1.619A17.456,17.456,0,0,1,48.794,43a1.517,1.517,0,0,0,1.551,0,17.4,17.4,0,0,1,1.142,5.966Z" transform="translate(-6.874 -5.805)" fill="#fdb330"/>
        <path id="Path_1176316" data-name="Path 1176316" d="M49.4,52.007a2.131,2.131,0,0,1-1.423-.545l-.409-.375a2.881,2.881,0,0,1-.946-2.276A18.3,18.3,0,0,1,47.8,42.469a.852.852,0,0,1,1.227-.4.682.682,0,0,0,.665,0,.852.852,0,0,1,1.227.4,18.291,18.291,0,0,1,1.27,6.341,2.881,2.881,0,0,1-.98,2.276l-.418.375A2.114,2.114,0,0,1,49.4,52.007Zm-.264-8.148a18.385,18.385,0,0,0-.852,5.02,1.2,1.2,0,0,0,.384.946l.409.375a.426.426,0,0,0,.563,0l.426-.375a1.193,1.193,0,0,0,.384-.938,18.24,18.24,0,0,0-.852-5.02,2.387,2.387,0,0,1-.46-.017Z" transform="translate(-6.727 -5.649)"/>
      </g>
    </g>
  </g>
</svg>
