<svg xmlns="http://www.w3.org/2000/svg" xmlns:xlink="http://www.w3.org/1999/xlink" width="103" height="103" viewBox="0 0 103 103">
  <defs>
    <filter id="Path_978624" x="0" y="0" width="103" height="103" filterUnits="userSpaceOnUse">
      <feOffset dy="3" input="SourceAlpha"/>
      <feGaussianBlur stdDeviation="3" result="blur"/>
      <feFlood flood-opacity="0.161"/>
      <feComposite operator="in" in2="blur"/>
      <feComposite in="SourceGraphic"/>
    </filter>
  </defs>
  <g id="Group_1224332" data-name="Group 1224332" transform="translate(-170.68 -1631)">
    <g id="Group_1224088" data-name="Group 1224088">
      <g id="Group_1224085" data-name="Group 1224085" transform="translate(-0.32 284)">
        <g id="Group_1220479" data-name="Group 1220479" transform="translate(-38.301 -1882)">
          <g id="Group_1214503" data-name="Group 1214503" transform="translate(218.301 3235)">
            <g id="Group_1211421" data-name="Group 1211421">
              <g id="Group_1208651" data-name="Group 1208651">
                <g id="Group_1178144" data-name="Group 1178144">
                  <g id="Group_1177896" data-name="Group 1177896">
                    <g id="Group_1176881" data-name="Group 1176881">
                      <g id="Group_1175148" data-name="Group 1175148">
                        <g id="Group_1173798" data-name="Group 1173798">
                          <g id="Group_1171925" data-name="Group 1171925">
                            <g id="Group_1164524" data-name="Group 1164524">
                              <g id="Group_1144123" data-name="Group 1144123">
                                <g transform="matrix(1, 0, 0, 1, -9, -6)" filter="url(#Path_978624)">
                                  <g id="Path_978624-2" data-name="Path 978624" transform="translate(9 6)" fill="#f8ecfd">
                                    <path d="M 42.5 83.5 C 36.96437835693359 83.5 31.59512901306152 82.41617584228516 26.54141235351562 80.27863311767578 C 21.65934181213379 78.21369171142578 17.27447128295898 75.25723266601562 13.50862312316895 71.49137878417969 C 9.742764472961426 67.72553253173828 6.786305904388428 63.34066009521484 4.721364498138428 58.45858764648438 C 2.583823442459106 53.40486907958984 1.5 48.03562164306641 1.5 42.5 C 1.5 36.96437835693359 2.583823442459106 31.59512901306152 4.721364498138428 26.54141235351562 C 6.786305904388428 21.65934181213379 9.742764472961426 17.27447128295898 13.50862312316895 13.50862312316895 C 17.27447128295898 9.742764472961426 21.65934181213379 6.786305904388428 26.54141235351562 4.721364498138428 C 31.59512901306152 2.583823442459106 36.96437835693359 1.5 42.5 1.5 C 48.03562164306641 1.5 53.40486907958984 2.583823442459106 58.45858764648438 4.721364498138428 C 63.34066009521484 6.786305904388428 67.72553253173828 9.742764472961426 71.49137878417969 13.50862312316895 C 75.25723266601562 17.27447128295898 78.21369171142578 21.65934181213379 80.27863311767578 26.54141235351562 C 82.41617584228516 31.59512901306152 83.5 36.96437835693359 83.5 42.5 C 83.5 48.03562164306641 82.41617584228516 53.40486907958984 80.27863311767578 58.45858764648438 C 78.21369171142578 63.34066009521484 75.25723266601562 67.72553253173828 71.49137878417969 71.49137878417969 C 67.72553253173828 75.25723266601562 63.34066009521484 78.21369171142578 58.45858764648438 80.27863311767578 C 53.40486907958984 82.41617584228516 48.03562164306641 83.5 42.5 83.5 Z" stroke="none"/>
                                    <path d="M 42.5 3 C 37.16621398925781 3 31.99356079101562 4.043960571289062 27.125732421875 6.102882385253906 C 22.42246627807617 8.092185974121094 18.19785308837891 10.94070434570312 14.56928253173828 14.56928253173828 C 10.94070434570312 18.19785308837891 8.092185974121094 22.42246627807617 6.102882385253906 27.125732421875 C 4.043960571289062 31.99356079101562 3 37.16621398925781 3 42.5 C 3 47.83378601074219 4.043960571289062 53.00643920898438 6.102882385253906 57.87425231933594 C 8.092185974121094 62.57753372192383 10.94070434570312 66.80213165283203 14.56928253173828 70.43071746826172 C 18.19786834716797 74.05929565429688 22.42246627807617 76.90781402587891 27.125732421875 78.89711761474609 C 31.99356079101562 80.95603942871094 37.16621398925781 82 42.5 82 C 47.83378601074219 82 53.00642395019531 80.95603942871094 57.87425231933594 78.89711761474609 C 62.57753372192383 76.90781402587891 66.80213165283203 74.05929565429688 70.43071746826172 70.43071746826172 C 74.05929565429688 66.80213165283203 76.90781402587891 62.57753372192383 78.89711761474609 57.87425231933594 C 80.95603942871094 53.00642395019531 82 47.83378601074219 82 42.5 C 82 37.16621398925781 80.95603942871094 31.99356079101562 78.89711761474609 27.125732421875 C 76.90781402587891 22.42246627807617 74.05929565429688 18.19786834716797 70.43071746826172 14.56928253173828 C 66.80213165283203 10.94070434570312 62.57753372192383 8.092185974121094 57.87425231933594 6.102882385253906 C 53.00643920898438 4.043960571289062 47.83378601074219 3 42.5 3 M 42.5 0 C 65.97209167480469 0 85 19.02789306640625 85 42.5 C 85 65.97209167480469 65.97209167480469 85 42.5 85 C 19.02789306640625 85 0 65.97209167480469 0 42.5 C 0 19.02789306640625 19.02789306640625 0 42.5 0 Z" stroke="none" fill="#c252f0"/>
                                  </g>
                                </g>
                              </g>
                            </g>
                          </g>
                        </g>
                      </g>
                    </g>
                  </g>
                </g>
              </g>
            </g>
          </g>
        </g>
      </g>
      <g id="color" transform="translate(190.68 1649.848)">
        <path id="Path_1175879" data-name="Path 1175879" d="M19.661,39H13.846L11.7,41.58A11.63,11.63,0,0,0,9,49.026v11.3H27.415L26.772,49.4a11.63,11.63,0,0,0-4.846-8.781Z" transform="translate(-0.216 -1.14)" fill="#706ecf"/>
        <path id="Path_1175880" data-name="Path 1175880" d="M41.908,47.692l3.274-.819a7.6,7.6,0,0,0,1.174-.4L51.5,44.271a1.751,1.751,0,0,0-.686-3.363h-6.97l-1.522-2.283a1.4,1.4,0,0,0-2.549.548L39,43.815Z" transform="translate(-1.14 -1.109)" fill="#ffd3b6"/>
        <path id="Path_1175881" data-name="Path 1175881" d="M38.269,44,30.2,49.65a6.273,6.273,0,0,1-7.077.08l-3.683-2.456a2.69,2.69,0,0,0-2.982,4.479l4.974,3.316a9.154,9.154,0,0,0,10.556-.3l9.193-6.895Z" transform="translate(-0.408 -1.294)" fill="#5252c1"/>
        <path id="Path_1175882" data-name="Path 1175882" d="M14,33h5.815v7.754a1.938,1.938,0,0,1-1.938,1.938A3.877,3.877,0,0,1,14,38.815Z" transform="translate(-0.37 -0.955)" fill="#f9b995"/>
        <path id="Path_1175883" data-name="Path 1175883" d="M21.378,35.845l-2.246.817a3.877,3.877,0,0,1-3.991-.828L13.732,34.5l-5.3-14.57L23,14.628l2.4,9.439,2.237,3.311-2.4,1.905L25.2,30.565a5.815,5.815,0,0,1-3.823,5.28Z" transform="translate(-0.198 -0.389)" fill="#ffd3b6"/>
        <path id="Path_1175884" data-name="Path 1175884" d="M23.826,5.74l-2.35,2.481a3.869,3.869,0,0,1-1.49.979l-9.935,3.445a11.62,11.62,0,0,0-5.272,3.723L3.85,17.531A3.877,3.877,0,0,0,3,19.948v.474a3.877,3.877,0,0,0,.552,1.995l2.355,3.928,7.657,7.882.409-1.17a11.62,11.62,0,0,0,.657-3.845V25.376l2.245-4.729L23.5,16.173l1.589-2.435a3.877,3.877,0,0,0,.4-3.445Z" transform="translate(-0.031 -0.115)" fill="#ffa31d"/>
        <path id="Path_1175885" data-name="Path 1175885" d="M1.938,0H7.754V7.754H1.938A1.938,1.938,0,0,1,0,5.815V1.938A1.938,1.938,0,0,1,1.938,0Z" transform="translate(16.187 18.716) rotate(-19.993)" fill="#1db4d8"/>
        <rect id="Rectangle_421363" data-name="Rectangle 421363" width="5.815" height="7.754" rx="2" transform="translate(19.831 17.39) rotate(-19.993)" fill="#47cbf4"/>
        <path id="Path_1175886" data-name="Path 1175886" d="M18.243,24.763l-11.227,4.2a1.938,1.938,0,0,1-2.56-1.345l-.02-.08A1.938,1.938,0,0,1,5.65,25.25l11.27-4.129Z" transform="translate(-0.073 -0.589)" fill="#1db4d8"/>
        <ellipse id="Ellipse_12496" data-name="Ellipse 12496" cx="8.5" cy="9" rx="8.5" ry="9" transform="translate(37 14.152)" fill="#ffa31d"/>
        <circle id="Ellipse_12497" data-name="Ellipse 12497" cx="2" cy="2" r="2" transform="translate(40 20.152)" fill="#ef8b06"/>
        <path id="Path_1175887" data-name="Path 1175887" d="M55.868,24.175a2.875,2.875,0,0,0-.96-.175,2.908,2.908,0,0,0-1.074,5.6,8.683,8.683,0,0,0,2.034-5.429Z" transform="translate(-1.54 -0.678)" fill="#ef8b06"/>
        <g id="Group_1224087" data-name="Group 1224087" transform="translate(29.138 2.965)">
          <path id="Path_1175888" data-name="Path 1175888" d="M0,0H4.112V4.112H0Z" transform="translate(12.596 0) rotate(45)" fill="#00c383"/>
          <path id="Path_1175889" data-name="Path 1175889" d="M55,8.877,57.908,5l2.908,3.877Z" transform="translate(-30.77 -3.058)" fill="#00c383"/>
          <path id="Path_1175890" data-name="Path 1175890" d="M35.815,15l-2.908,4.846L30,15Z" transform="translate(-30 -3.366)" fill="#00c383"/>
          <circle id="Ellipse_12498" data-name="Ellipse 12498" cx="2" cy="2" r="2" transform="translate(25.863 29.187)" fill="#00c383"/>
        </g>
        <path id="Path_1175891" data-name="Path 1175891" d="M54.5,18c1.618-2.365,2.617-4.638,1.529-5.724-1.018-1.019-2.811-.2-4.071.5a.969.969,0,1,0,.948,1.691,6.164,6.164,0,0,1,1.642-.707,9.623,9.623,0,0,1-1.391,2.726A9.675,9.675,0,0,0,39.493,30.164a9.611,9.611,0,0,1-2.726,1.39,6.177,6.177,0,0,1,.707-1.641.969.969,0,1,0-1.691-.948c-.7,1.26-1.525,3.046-.5,4.071a1.648,1.648,0,0,0,1.219.456c1.193,0,2.824-.841,4.5-1.988A9.675,9.675,0,0,0,54.5,18Zm-1.443,9.94a1.912,1.912,0,0,1-.62-1.411A1.938,1.938,0,0,1,54.31,24.6a7.709,7.709,0,0,1-1.25,3.343ZM38.871,23.624a7.747,7.747,0,0,1,13.17-5.538A55.787,55.787,0,0,1,46.9,23.908a55.658,55.658,0,0,1-5.822,5.137,7.725,7.725,0,0,1-2.212-5.421Zm3.794,6.655a65.624,65.624,0,0,0,5.614-5,65.548,65.548,0,0,0,5-5.611,7.7,7.7,0,0,1,1.03,2.987A3.867,3.867,0,0,0,51.78,29.4a7.7,7.7,0,0,1-9.115.88Z" transform="translate(-1.01 -0.302)"/>
        <path id="Path_1175892" data-name="Path 1175892" d="M42.908,20a2.908,2.908,0,1,0,2.908,2.908A2.908,2.908,0,0,0,42.908,20Zm0,3.877a.969.969,0,1,1,.969-.969A.969.969,0,0,1,42.908,23.877Z" transform="translate(-1.17 -0.554)"/>
        <path id="Path_1175893" data-name="Path 1175893" d="M42.192,9.47a.969.969,0,0,0,1.37,0L46.47,6.562a.969.969,0,0,0,0-1.37L43.562,2.284a.969.969,0,0,0-1.37,0L39.284,5.192a.969.969,0,0,0,0,1.37Zm.685-5.13,1.537,1.537L42.877,7.414,41.34,5.877Z" transform="translate(-1.14)"/>
        <path id="Path_1175894" data-name="Path 1175894" d="M54.969,9.816h5.815a.969.969,0,0,0,.775-1.551L58.652,4.388a1,1,0,0,0-1.551,0L54.194,8.265a.969.969,0,0,0,.775,1.551Zm2.908-3.23.969,1.292H56.908Z" transform="translate(-1.602 -0.062)"/>
        <path id="Path_1175895" data-name="Path 1175895" d="M32.046,20.314a.969.969,0,0,0,1.661,0l2.908-4.846A.969.969,0,0,0,35.784,14H29.969a.969.969,0,0,0-.831,1.468Zm2.026-4.376-1.2,1.994-1.2-1.994Z" transform="translate(-0.832 -0.37)"/>
        <path id="Path_1175896" data-name="Path 1175896" d="M58.908,32a2.908,2.908,0,1,0,2.908,2.908A2.908,2.908,0,0,0,58.908,32Zm0,3.877a.969.969,0,1,1,.969-.969A.969.969,0,0,1,58.908,35.877Z" transform="translate(-1.663 -0.924)"/>
        <path id="Path_1175897" data-name="Path 1175897" d="M27.2,58.3H9.754V47.971a10.678,10.678,0,0,1,2.471-6.828l.928-1.114a4.839,4.839,0,0,0,4.355,2.761,2.908,2.908,0,0,0,2.908-2.908v-.055l.728.519a10.635,10.635,0,0,1,4.243,6.514.969.969,0,0,0,.948.775.985.985,0,0,0,.194-.02.969.969,0,0,0,.753-1.145,12.562,12.562,0,0,0-5.016-7.7l-1.85-1.325v-.6l1.1-.4a6.749,6.749,0,0,0,4.458-6.161L26,29.456l2.048-1.626a.969.969,0,0,0,.2-1.3l-1.558-2.306a2.879,2.879,0,0,0,1.5-3.611l-1.327-3.643a2.892,2.892,0,0,0-1.5-1.641c-.054-.025-.111-.037-.166-.058l.678-1.032a4.866,4.866,0,0,0,.5-4.306L24.708,5.377a.969.969,0,0,0-1.615-.334L20.74,7.525a2.894,2.894,0,0,1-1.1.728L9.7,11.7a12.586,12.586,0,0,0-5.711,4.034L3.063,16.9A4.865,4.865,0,0,0,2,19.918v.474a4.846,4.846,0,0,0,.691,2.494l1.2,1.993a2.99,2.99,0,0,0-.447,2.47,2.908,2.908,0,0,0,3.84,2.018l.156-.058,5.225,5.38v2.908l-1.926,2.312a12.628,12.628,0,0,0-2.92,8.065v11.3a.969.969,0,0,0,.969.969H27.2a.969.969,0,1,0,0-1.938ZM17.507,40.852A2.908,2.908,0,0,1,14.6,37.945V36.486a4.8,4.8,0,0,0,3,1.078,4.886,4.886,0,0,0,.872-.083v2.4A.969.969,0,0,1,17.507,40.852Zm6.935-12.634a.969.969,0,0,0-.367.729l-.038,1.244H22.353a.969.969,0,1,0,0,1.938h1.22a4.812,4.812,0,0,1-2.724,2.5l-2.245.818a2.891,2.891,0,0,1-2.995-.622l-.952-.9.2-.582a12.567,12.567,0,0,0,.708-4.168V26.267l2.188-.819A2.916,2.916,0,0,0,20,26.508a2.885,2.885,0,0,0,.991-.174l3.844-1.4,1.31,1.938Zm-6.655-8.674a.969.969,0,0,1,.548-.5l1.076-.388a2.9,2.9,0,0,0,.167.97L20.9,23.265a2.875,2.875,0,0,0,.492.852L20.32,24.5a.977.977,0,0,1-1.243-.582l-1.325-3.642a.969.969,0,0,1,.035-.738Zm8.58,1.731a.969.969,0,0,1-.582,1.243l-1.822.664a.975.975,0,0,1-1.243-.582L21.4,18.956a.969.969,0,0,1,.582-1.243l1.82-.664a.992.992,0,0,1,.332-.058.969.969,0,0,1,.91.638ZM3.938,19.918A2.92,2.92,0,0,1,4.576,18.1L5.5,16.937a10.641,10.641,0,0,1,4.83-3.407l9.951-3.45a4.874,4.874,0,0,0,1.861-1.222l1.273-1.346,1.121,3.079a2.924,2.924,0,0,1-.3,2.584l-1.405,2.167-1.518.552h-.006L17.672,17.22a2.875,2.875,0,0,0-1.9,2.759L5.47,23.752,4.353,21.891a2.908,2.908,0,0,1-.415-1.5ZM5.811,27.5a1.018,1.018,0,0,1-.51-.7.969.969,0,0,1,.607-1.146l10.359-3.792.664,1.827L6.6,27.553a.961.961,0,0,1-.79-.048Zm7.819-.509v2.19a10.638,10.638,0,0,1-.5,3.211L9.418,28.569Z" transform="translate(0 -0.084)"/>
        <path id="Path_1175898" data-name="Path 1175898" d="M50.046,39.908H43.594l-1.234-1.851a2.372,2.372,0,0,0-4.313.926l-.707,4.241L29.6,48.641a5.386,5.386,0,0,1-5.985.068l-4.234-2.823A.969.969,0,1,0,18.309,47.5l4.234,2.823a7.358,7.358,0,0,0,8.171-.1l7.3-5.113,1.763,2.355L31.364,53.78a8.225,8.225,0,0,1-4.905,1.635,8.135,8.135,0,0,1-4.532-1.372l-6.42-4.28a.969.969,0,0,0-1.076,1.613l6.42,4.28a10.066,10.066,0,0,0,5.608,1.7,10.17,10.17,0,0,0,6.067-2.023l9.036-6.777,3.084-.775a8.384,8.384,0,0,0,1.32-.445l5.154-2.2a2.722,2.722,0,0,0-1.074-5.223Zm.309,3.442L45.2,45.557a6.758,6.758,0,0,1-1.023.346l-2.651.662-2.272-3.031L39.96,39.3a.451.451,0,0,1,.79-.168l1.522,2.283a.969.969,0,0,0,.8.43h6.97a.783.783,0,0,1,.309,1.5Z" transform="translate(-0.37 -1.078)"/>
      </g>
    </g>
  </g>
</svg>
