<svg xmlns="http://www.w3.org/2000/svg" xmlns:xlink="http://www.w3.org/1999/xlink" width="103" height="103" viewBox="0 0 103 103">
  <defs>
    <filter id="Path_978624" x="0" y="0" width="103" height="103" filterUnits="userSpaceOnUse">
      <feOffset dy="3" input="SourceAlpha"/>
      <feGaussianBlur stdDeviation="3" result="blur"/>
      <feFlood flood-opacity="0.161"/>
      <feComposite operator="in" in2="blur"/>
      <feComposite in="SourceGraphic"/>
    </filter>
    <clipPath id="clip-path">
      <path id="path21" d="M0-682.665H55.522v55.522H0Z" transform="translate(0 682.665)"/>
    </clipPath>
  </defs>
  <g id="Group_1224345" data-name="Group 1224345" transform="translate(-171 -1995)">
    <g id="Group_1224252" data-name="Group 1224252">
      <g id="Group_1223040" data-name="Group 1223040" transform="translate(0 648)">
        <g id="Group_1220479" data-name="Group 1220479" transform="translate(-38.301 -1882)">
          <g id="Group_1214503" data-name="Group 1214503" transform="translate(218.301 3235)">
            <g id="Group_1211421" data-name="Group 1211421">
              <g id="Group_1208651" data-name="Group 1208651">
                <g id="Group_1178144" data-name="Group 1178144">
                  <g id="Group_1177896" data-name="Group 1177896">
                    <g id="Group_1176881" data-name="Group 1176881">
                      <g id="Group_1175148" data-name="Group 1175148">
                        <g id="Group_1173798" data-name="Group 1173798">
                          <g id="Group_1171925" data-name="Group 1171925">
                            <g id="Group_1164524" data-name="Group 1164524">
                              <g id="Group_1144123" data-name="Group 1144123">
                                <g transform="matrix(1, 0, 0, 1, -9, -6)" filter="url(#Path_978624)">
                                  <g id="Path_978624-2" data-name="Path 978624" transform="translate(9 6)" fill="#f8ecfd">
                                    <path d="M 42.5 83.5 C 36.96437835693359 83.5 31.59512901306152 82.41617584228516 26.54141235351562 80.27863311767578 C 21.65934181213379 78.21369171142578 17.27447128295898 75.25723266601562 13.50862312316895 71.49137878417969 C 9.742764472961426 67.72553253173828 6.786305904388428 63.34066009521484 4.721364498138428 58.45858764648438 C 2.583823442459106 53.40486907958984 1.5 48.03562164306641 1.5 42.5 C 1.5 36.96437835693359 2.583823442459106 31.59512901306152 4.721364498138428 26.54141235351562 C 6.786305904388428 21.65934181213379 9.742764472961426 17.27447128295898 13.50862312316895 13.50862312316895 C 17.27447128295898 9.742764472961426 21.65934181213379 6.786305904388428 26.54141235351562 4.721364498138428 C 31.59512901306152 2.583823442459106 36.96437835693359 1.5 42.5 1.5 C 48.03562164306641 1.5 53.40486907958984 2.583823442459106 58.45858764648438 4.721364498138428 C 63.34066009521484 6.786305904388428 67.72553253173828 9.742764472961426 71.49137878417969 13.50862312316895 C 75.25723266601562 17.27447128295898 78.21369171142578 21.65934181213379 80.27863311767578 26.54141235351562 C 82.41617584228516 31.59512901306152 83.5 36.96437835693359 83.5 42.5 C 83.5 48.03562164306641 82.41617584228516 53.40486907958984 80.27863311767578 58.45858764648438 C 78.21369171142578 63.34066009521484 75.25723266601562 67.72553253173828 71.49137878417969 71.49137878417969 C 67.72553253173828 75.25723266601562 63.34066009521484 78.21369171142578 58.45858764648438 80.27863311767578 C 53.40486907958984 82.41617584228516 48.03562164306641 83.5 42.5 83.5 Z" stroke="none"/>
                                    <path d="M 42.5 3 C 37.16621398925781 3 31.99356079101562 4.043960571289062 27.125732421875 6.102882385253906 C 22.42246627807617 8.092185974121094 18.19785308837891 10.94070434570312 14.56928253173828 14.56928253173828 C 10.94070434570312 18.19785308837891 8.092185974121094 22.42246627807617 6.102882385253906 27.125732421875 C 4.043960571289062 31.99356079101562 3 37.16621398925781 3 42.5 C 3 47.83378601074219 4.043960571289062 53.00643920898438 6.102882385253906 57.87425231933594 C 8.092185974121094 62.57753372192383 10.94070434570312 66.80213165283203 14.56928253173828 70.43071746826172 C 18.19786834716797 74.05929565429688 22.42246627807617 76.90781402587891 27.125732421875 78.89711761474609 C 31.99356079101562 80.95603942871094 37.16621398925781 82 42.5 82 C 47.83378601074219 82 53.00642395019531 80.95603942871094 57.87425231933594 78.89711761474609 C 62.57753372192383 76.90781402587891 66.80213165283203 74.05929565429688 70.43071746826172 70.43071746826172 C 74.05929565429688 66.80213165283203 76.90781402587891 62.57753372192383 78.89711761474609 57.87425231933594 C 80.95603942871094 53.00642395019531 82 47.83378601074219 82 42.5 C 82 37.16621398925781 80.95603942871094 31.99356079101562 78.89711761474609 27.125732421875 C 76.90781402587891 22.42246627807617 74.05929565429688 18.19786834716797 70.43071746826172 14.56928253173828 C 66.80213165283203 10.94070434570312 62.57753372192383 8.092185974121094 57.87425231933594 6.102882385253906 C 53.00643920898438 4.043960571289062 47.83378601074219 3 42.5 3 M 42.5 0 C 65.97209167480469 0 85 19.02789306640625 85 42.5 C 85 65.97209167480469 65.97209167480469 85 42.5 85 C 19.02789306640625 85 0 65.97209167480469 0 42.5 C 0 19.02789306640625 19.02789306640625 0 42.5 0 Z" stroke="none" fill="#c252f0"/>
                                  </g>
                                </g>
                              </g>
                            </g>
                          </g>
                        </g>
                      </g>
                    </g>
                  </g>
                </g>
              </g>
            </g>
          </g>
        </g>
      </g>
      <g id="g15" transform="translate(194.739 2698.093)">
        <g id="g17" transform="translate(0 -682.665)">
          <g id="g19" clip-path="url(#clip-path)">
            <g id="g25" transform="translate(1.084 8.892)">
              <path id="path27" d="M0-367.467H53.353V-397.83A2.175,2.175,0,0,0,51.184-400H2.169A2.175,2.175,0,0,0,0-397.83Z" transform="translate(0 399.999)" fill="#cff5fd" fill-rule="evenodd"/>
            </g>
            <g id="g29" transform="translate(1.084 41.424)">
              <path id="path31" d="M-602.648,0H-656V2.169a2.175,2.175,0,0,0,2.169,2.169h49.016a2.175,2.175,0,0,0,2.169-2.169Z" transform="translate(656.001)" fill="#cfd3df" fill-rule="evenodd"/>
            </g>
            <g id="g33" transform="translate(20.17 45.762)">
              <path id="path35" d="M-146.989,0h-10.844L-160,8.675h15.182Z" transform="translate(160.002)" fill="#9ea6bf" fill-rule="evenodd"/>
            </g>
            <g id="g37" transform="translate(6.073 1.084)">
              <path id="path39" d="M-244.978-176.384l13.013-4.685,8.675-3.123L-244.978-192l-21.688,7.808,8.675,3.123Z" transform="translate(266.666 192)" fill="#9ea6bf" fill-rule="evenodd"/>
            </g>
            <g id="g41" transform="translate(14.748 12.015)">
              <path id="path43" d="M-293.973-114.5v-10.137l-13.013,4.685L-320-124.634v10.6a50.258,50.258,0,0,0,6.45,1.283,50.277,50.277,0,0,0,6.563.43,50.283,50.283,0,0,0,13.013-1.713Z" transform="translate(319.999 124.634)" fill="#9ea6bf" fill-rule="evenodd"/>
            </g>
            <g id="g45" transform="translate(45.437 13.938)">
              <path id="path47" d="M0-24.5v4.338H4.338V-24.5a2.175,2.175,0,0,0-2.169-2.169A2.175,2.175,0,0,0,0-24.5" transform="translate(0 26.667)" fill="#ffee80" fill-rule="evenodd"/>
            </g>
            <g id="g49" transform="translate(12.476 22.152)">
              <path id="path51" d="M-319.639-5.209A50.283,50.283,0,0,1-332.651-3.5a50.274,50.274,0,0,1-6.563-.43c.71,4.44-5.118,6.531-6.709,7.171-2.681,1.079-2.76,5.182.215,5.439,4.52.389,12.068-3.792,13.056,4.919h15.25c-2.359-4.365,4.033-4.86,2.542-7.43-1.016-1.752-4.654-1.165-6.51-2.205-1.526-.856-1.325-3.538,1.26-3.938,2.057-.318,4.945-.188,5.9-.585a23.258,23.258,0,0,0-5.432-5.114Z" transform="translate(347.937 5.671)" fill="#66e0f7" fill-rule="evenodd"/>
            </g>
            <g id="g53" transform="translate(38.082 27.266)">
              <path id="path55" d="M-91.768,0c-.959.4-3.847.267-5.9.585-2.584.4-2.786,3.083-1.26,3.938,1.856,1.041,5.494.453,6.51,2.205,1.491,2.571-4.9,3.065-2.542,7.43h8A23.222,23.222,0,0,0-91.768,0" transform="translate(99.892)" fill="#88df8e" fill-rule="evenodd"/>
            </g>
            <g id="g57" transform="translate(4.507 22.152)">
              <path id="path59" d="M-115.189-162.135c-2.976-.256-2.9-4.36-.215-5.439,1.591-.64,7.419-2.731,6.709-7.171a50.274,50.274,0,0,1-6.45-1.283v-.461a23.257,23.257,0,0,0-10.241,19.273h23.254c-.988-8.711-8.536-4.529-13.056-4.919" transform="translate(125.386 176.489)" fill="#88df8e" fill-rule="evenodd"/>
            </g>
            <g id="g61" transform="translate(1.084 8.892)">
              <path id="path63" d="M-546.3,0h2.82a2.175,2.175,0,0,1,2.169,2.169V34.7a2.175,2.175,0,0,1-2.169,2.169H-592.5a2.175,2.175,0,0,1-2.169-2.169V2.169A2.175,2.175,0,0,1-592.5,0h2.82" transform="translate(594.665 0)" fill="none" stroke="#000" stroke-linecap="round" stroke-linejoin="round" stroke-miterlimit="22.926" stroke-width="2"/>
            </g>
            <g id="g65" transform="translate(1.338 41.424)">
              <path id="path67" d="M0,0H52.845" fill="none" stroke="#000" stroke-linecap="round" stroke-linejoin="round" stroke-miterlimit="22.926" stroke-width="2"/>
            </g>
            <g id="g69" transform="translate(18.001 46.03)">
              <path id="path71" d="M-25.364-91.507l2.025-8.1M-8.089-91.2h-19.52m15.256-8.379,2.023,8.092" transform="translate(27.609 99.608)" fill="none" stroke="#000" stroke-linecap="round" stroke-linejoin="round" stroke-miterlimit="22.926" stroke-width="2"/>
            </g>
            <g id="g73" transform="translate(45.762 41.632)">
              <path id="path75" d="M0,0V3.923" fill="none" stroke="#000" stroke-linecap="round" stroke-linejoin="round" stroke-miterlimit="22.926" stroke-width="2"/>
            </g>
            <g id="g77" transform="translate(6.073 1.084)">
              <path id="path79" d="M-174.367-25.42l6.251-2.25,21.688,7.808-21.688,7.808L-189.8-19.863l6.252-2.251" transform="translate(189.804 27.671)" fill="none" stroke="#000" stroke-linecap="round" stroke-linejoin="round" stroke-miterlimit="22.926" stroke-width="2"/>
            </g>
            <g id="g81" transform="translate(14.748 12.015)">
              <path id="path83" d="M-293.973,0V10.6a50.283,50.283,0,0,1-13.013,1.713A50.283,50.283,0,0,1-320,10.6V0" transform="translate(319.999)" fill="none" stroke="#000" stroke-linecap="round" stroke-linejoin="round" stroke-miterlimit="22.926" stroke-width="2"/>
            </g>
            <g id="g85" transform="translate(4.507 22.152)">
              <path id="path87" d="M0-217.693a23.257,23.257,0,0,1,10.241-19.273m26.026,0a23.256,23.256,0,0,1,10.241,19.272" transform="translate(0 236.966)" fill="none" stroke="#000" stroke-linecap="round" stroke-linejoin="round" stroke-miterlimit="22.926" stroke-width="2"/>
            </g>
            <g id="g89" transform="translate(12.476 23.896)">
              <path id="path91" d="M-98.524,0c.71,4.44-5.118,6.531-6.709,7.171-2.681,1.079-2.761,5.182.215,5.439C-100.5,13-92.95,8.818-91.962,17.528" transform="translate(107.247)" fill="none" stroke="#000" stroke-linecap="round" stroke-linejoin="round" stroke-miterlimit="22.926" stroke-width="2"/>
            </g>
            <g id="g93" transform="translate(38.082 27.266)">
              <path id="path95" d="M-91.768,0c-.959.4-3.847.267-5.9.585-2.584.4-2.786,3.083-1.26,3.938,1.856,1.041,5.494.453,6.51,2.205,1.491,2.571-4.9,3.065-2.542,7.43" transform="translate(99.892)" fill="none" stroke="#000" stroke-linecap="round" stroke-linejoin="round" stroke-miterlimit="22.926" stroke-width="2"/>
            </g>
            <g id="g97" transform="translate(47.606 9.738)">
              <path id="path99" d="M0,0V3.884" transform="translate(0 0)" fill="none" stroke="#000" stroke-linecap="round" stroke-linejoin="round" stroke-miterlimit="22.926" stroke-width="2"/>
            </g>
            <g id="g101" transform="translate(45.437 13.938)">
              <path id="path103" d="M-24.5,0h0a2.175,2.175,0,0,1,2.169,2.169V6.506h-4.338V2.169A2.175,2.175,0,0,1-24.5,0Z" transform="translate(26.667 0)" fill="none" stroke="#000" stroke-linecap="round" stroke-linejoin="round" stroke-miterlimit="22.926" stroke-width="2"/>
            </g>
            <g id="g105" transform="translate(16.917 4.988)">
              <path id="path107" d="M0,0H0" fill="none" stroke="#000" stroke-linecap="round" stroke-linejoin="round" stroke-miterlimit="2.613" stroke-width="2"/>
            </g>
          </g>
        </g>
      </g>
    </g>
  </g>
</svg>
