<svg xmlns="http://www.w3.org/2000/svg" xmlns:xlink="http://www.w3.org/1999/xlink" width="113" height="113" viewBox="0 0 113 113">
  <defs>
    <filter id="Path_982547" x="0" y="0" width="113" height="113" filterUnits="userSpaceOnUse">
      <feOffset dy="3" input="SourceAlpha"/>
      <feGaussianBlur stdDeviation="3" result="blur"/>
      <feFlood flood-opacity="0.161"/>
      <feComposite operator="in" in2="blur"/>
      <feComposite in="SourceGraphic"/>
    </filter>
  </defs>
  <g id="Group_1224349" data-name="Group 1224349" transform="translate(-743 -1459.043)">
    <g id="Group_1224257" data-name="Group 1224257" transform="translate(0 6)">
      <g id="Group_1223773" data-name="Group 1223773" transform="translate(0 -4451.031)">
        <g id="Group_1206282" data-name="Group 1206282" transform="translate(0 -3448.335)">
          <g id="Group_1203803" data-name="Group 1203803" transform="translate(0 6552.41)">
            <g id="Group_1202425" data-name="Group 1202425" transform="translate(-0.25 1464)">
              <g id="Group_1178324" data-name="Group 1178324" transform="translate(0 424)">
                <g id="Group_1177680" data-name="Group 1177680" transform="translate(752.25 918)">
                  <g id="Group_1172010" data-name="Group 1172010">
                    <g id="Group_1171046" data-name="Group 1171046">
                      <g id="Group_1148525" data-name="Group 1148525">
                        <g transform="matrix(1, 0, 0, 1, -9, -6)" filter="url(#Path_982547)">
                          <g id="Path_982547-2" data-name="Path 982547" transform="translate(9 6)" fill="#fdecc1">
                            <path d="M 47.5 93.5 C 41.28937149047852 93.5 35.26533508300781 92.28397369384766 29.59518623352051 89.88570404052734 C 24.11771965026855 87.56893157958984 19.19813346862793 84.25196075439453 14.97309303283691 80.02691650390625 C 10.74804019927979 75.80186462402344 7.431066513061523 70.88229370117188 5.114293098449707 65.40481567382812 C 2.716026782989502 59.73468017578125 1.5 53.71062850952148 1.5 47.5 C 1.5 41.28937149047852 2.716026782989502 35.26533508300781 5.114293098449707 29.59518623352051 C 7.431066513061523 24.11771965026855 10.74804019927979 19.19813346862793 14.97309303283691 14.97309303283691 C 19.19813346862793 10.74804019927979 24.11771965026855 7.431066513061523 29.59518623352051 5.114293098449707 C 35.26533508300781 2.716026782989502 41.28937149047852 1.5 47.5 1.5 C 53.71062850952148 1.5 59.73468017578125 2.716026782989502 65.40481567382812 5.114293098449707 C 70.88229370117188 7.431066513061523 75.80186462402344 10.74804019927979 80.02691650390625 14.97309303283691 C 84.25196075439453 19.19813346862793 87.56893157958984 24.11771965026855 89.88570404052734 29.59518623352051 C 92.28397369384766 35.26533508300781 93.5 41.28937149047852 93.5 47.5 C 93.5 53.71062850952148 92.28397369384766 59.73468017578125 89.88570404052734 65.40481567382812 C 87.56893157958984 70.88229370117188 84.25196075439453 75.80186462402344 80.02691650390625 80.02691650390625 C 75.80186462402344 84.25196075439453 70.88229370117188 87.56893157958984 65.40481567382812 89.88570404052734 C 59.73468017578125 92.28397369384766 53.71062850952148 93.5 47.5 93.5 Z" stroke="none"/>
                            <path d="M 47.5 3 C 41.49121475219727 3 35.66376876831055 4.176155090332031 30.17950439453125 6.495796203613281 C 24.88084411621094 8.736953735351562 20.12152099609375 11.94598388671875 16.03375244140625 16.03375244140625 C 11.94598388671875 20.12152099609375 8.736953735351562 24.88084411621094 6.495796203613281 30.17950439453125 C 4.176155090332031 35.66376876831055 3 41.49121475219727 3 47.5 C 3 53.50878524780273 4.176155090332031 59.33623123168945 6.495796203613281 64.82049560546875 C 8.736953735351562 70.11915588378906 11.94598388671875 74.87847900390625 16.03375244140625 78.96624755859375 C 20.12152099609375 83.05401611328125 24.88084411621094 86.26304626464844 30.17950439453125 88.50419616699219 C 35.66376876831055 90.82384490966797 41.49121475219727 92 47.5 92 C 53.50878524780273 92 59.33623123168945 90.82384490966797 64.82049560546875 88.50419616699219 C 70.11915588378906 86.26304626464844 74.87847900390625 83.05401611328125 78.96624755859375 78.96624755859375 C 83.05401611328125 74.87847900390625 86.26304626464844 70.11915588378906 88.50419616699219 64.82049560546875 C 90.82384490966797 59.33623123168945 92 53.50878524780273 92 47.5 C 92 41.49121475219727 90.82384490966797 35.66376876831055 88.50419616699219 30.17950439453125 C 86.26304626464844 24.88084411621094 83.05401611328125 20.12152099609375 78.96624755859375 16.03375244140625 C 74.87847900390625 11.94598388671875 70.11915588378906 8.736953735351562 64.82049560546875 6.495796203613281 C 59.33623123168945 4.176155090332031 53.50878524780273 3 47.5 3 M 47.5 0 C 73.7335205078125 0 95 21.2664794921875 95 47.5 C 95 73.7335205078125 73.7335205078125 95 47.5 95 C 21.2664794921875 95 0 73.7335205078125 0 47.5 C 0 21.2664794921875 21.2664794921875 0 47.5 0 Z" stroke="none" fill="#f8c234"/>
                          </g>
                        </g>
                      </g>
                    </g>
                  </g>
                </g>
              </g>
            </g>
          </g>
        </g>
      </g>
      <g id="trabajo-en-equipo_1_" data-name="trabajo-en-equipo (1)" transform="translate(768.011 1474.82)">
        <circle id="Ellipse_12509" data-name="Ellipse 12509" cx="13.475" cy="13.475" r="13.475" transform="translate(18.47 18.255)" fill="#ffb850"/>
        <path id="Path_1176057" data-name="Path 1176057" d="M28.98,344.133a10.588,10.588,0,1,1-10.588-10.588A10.547,10.547,0,0,1,28.98,344.133Z" transform="translate(-6.572 -292.203)" fill="#eaf6ff"/>
        <path id="Path_1176058" data-name="Path 1176058" d="M48.309,436.513v2.426a10.583,10.583,0,0,1-14.8,0v-2.426a1.7,1.7,0,0,1,1.149-1.61l5.169-1.777h2.169l5.167,1.777A1.7,1.7,0,0,1,48.309,436.513Z" transform="translate(-29.087 -379.44)" fill="#ffb850"/>
        <path id="Path_1176059" data-name="Path 1176059" d="M37.223,438.938a10.539,10.539,0,0,0,5.543,2.856,10.595,10.595,0,0,1-9.261-2.856v-2.426a1.7,1.7,0,0,1,1.149-1.61l5.169-1.777h2.169l.775.266L38.372,434.9a1.7,1.7,0,0,0-1.149,1.61Z" transform="translate(-29.087 -379.44)" fill="#f5a30f"/>
        <path id="Path_1176060" data-name="Path 1176060" d="M354.42,344.133a10.588,10.588,0,1,1-10.588-10.588A10.547,10.547,0,0,1,354.42,344.133Z" transform="translate(-291.675 -292.203)" fill="#eaf6ff"/>
        <path id="Path_1176061" data-name="Path 1176061" d="M373.749,436.513v2.426a10.583,10.583,0,0,1-14.8,0v-2.426a1.7,1.7,0,0,1,1.15-1.61l5.167-1.777h2.169L372.6,434.9A1.7,1.7,0,0,1,373.749,436.513Z" transform="translate(-314.189 -379.44)" fill="#88b4f5"/>
        <path id="Path_1176062" data-name="Path 1176062" d="M362.663,438.938a10.539,10.539,0,0,0,5.543,2.856,10.595,10.595,0,0,1-9.261-2.856v-2.426a1.7,1.7,0,0,1,1.15-1.61l5.167-1.777h2.169l.775.266-4.393,1.511a1.7,1.7,0,0,0-1.15,1.61Z" transform="translate(-314.189 -379.44)" fill="#6ea2f2"/>
        <path id="Path_1176063" data-name="Path 1176063" d="M354.42,18.093a10.549,10.549,0,0,1-3.185,7.568h0a10.586,10.586,0,0,1-14.8,0h0a10.587,10.587,0,1,1,17.99-7.568Z" transform="translate(-291.675 -6.575)" fill="#eaf6ff"/>
        <path id="Path_1176064" data-name="Path 1176064" d="M373.749,110.471V112.9a10.586,10.586,0,0,1-14.8,0v-2.428a1.7,1.7,0,0,1,1.15-1.61l5.167-1.776h2.169l5.169,1.776A1.7,1.7,0,0,1,373.749,110.471Z" transform="translate(-314.189 -93.812)" fill="#f07281"/>
        <path id="Path_1176065" data-name="Path 1176065" d="M362.663,112.9a10.546,10.546,0,0,0,5.543,2.855,10.6,10.6,0,0,1-9.261-2.855v-2.428a1.7,1.7,0,0,1,1.15-1.61l5.167-1.776h2.169l.775.266-4.393,1.51a1.7,1.7,0,0,0-1.15,1.61Z" transform="translate(-314.189 -93.812)" fill="#eb5569"/>
        <path id="Path_1176066" data-name="Path 1176066" d="M28.98,18.093a10.549,10.549,0,0,1-3.185,7.568h0a10.586,10.586,0,0,1-14.8,0h0a10.587,10.587,0,1,1,17.99-7.568Z" transform="translate(-6.572 -6.575)" fill="#eaf6ff"/>
        <path id="Path_1176067" data-name="Path 1176067" d="M48.309,110.471V112.9a10.586,10.586,0,0,1-14.8,0v-2.428a1.7,1.7,0,0,1,1.149-1.61l5.169-1.776h2.169l5.167,1.776A1.7,1.7,0,0,1,48.309,110.471Z" transform="translate(-29.087 -93.812)" fill="#ade194"/>
        <path id="Path_1176068" data-name="Path 1176068" d="M37.223,112.9a10.546,10.546,0,0,0,5.543,2.855,10.6,10.6,0,0,1-9.261-2.855v-2.428a1.7,1.7,0,0,1,1.149-1.61l5.169-1.776h2.169l.775.266-4.394,1.51a1.7,1.7,0,0,0-1.149,1.61Z" transform="translate(-29.087 -93.812)" fill="#87d469"/>
        <circle id="Ellipse_12510" data-name="Ellipse 12510" cx="9.916" cy="9.916" r="9.916" transform="matrix(0.987, -0.16, 0.16, 0.987, 20.563, 23.533)" fill="#fbd94f"/>
        <path id="Path_1176069" data-name="Path 1176069" d="M220.991,217.277l1.513,3.065,3.382.491-2.448,2.386.578,3.369L220.991,225l-3.025,1.59.578-3.369-2.447-2.386,3.382-.491Z" transform="translate(-189.046 -190.346)" fill="#ffb850"/>
        <circle id="Ellipse_12511" data-name="Ellipse 12511" cx="3.826" cy="3.826" r="3.826" transform="translate(48.333 5.617)" fill="#ffeee6"/>
        <path id="Path_1176070" data-name="Path 1176070" d="M393.489,52.484a3.826,3.826,0,1,1,0-6.687,3.826,3.826,0,0,0,0,6.687Z" transform="translate(-339.472 -39.698)" fill="#ffdfcf"/>
        <circle id="Ellipse_12512" data-name="Ellipse 12512" cx="3.826" cy="3.826" r="3.826" transform="translate(7.995 5.617)" fill="#ffcebf"/>
        <path id="Path_1176071" data-name="Path 1176071" d="M68.04,52.484a3.826,3.826,0,1,1,0-6.687,3.825,3.825,0,0,0,0,6.687Z" transform="translate(-54.361 -39.698)" fill="#ffb09e"/>
        <circle id="Ellipse_12513" data-name="Ellipse 12513" cx="3.826" cy="3.826" r="3.826" transform="translate(48.333 46.03)" fill="#ffcebf"/>
        <path id="Path_1176072" data-name="Path 1176072" d="M393.489,378.534a3.826,3.826,0,1,1,0-6.687,3.826,3.826,0,0,0,0,6.687Z" transform="translate(-339.472 -325.335)" fill="#ffb09e"/>
        <circle id="Ellipse_12514" data-name="Ellipse 12514" cx="3.826" cy="3.826" r="3.826" transform="translate(7.995 46.03)" fill="#ffeee6"/>
        <path id="Path_1176073" data-name="Path 1176073" d="M68.04,378.534a3.826,3.826,0,1,1,0-6.687,3.825,3.825,0,0,0,0,6.687Z" transform="translate(-54.361 -325.335)" fill="#ffdfcf"/>
        <g id="Group_1224256" data-name="Group 1224256" transform="translate(0.303 0)">
          <path id="Path_1176074" data-name="Path 1176074" d="M168.085,179.35a10.843,10.843,0,0,0,19.7,6.263.93.93,0,1,0-1.516-1.076,8.937,8.937,0,1,1,1.468-3.372.93.93,0,0,0,1.821.377,10.846,10.846,0,1,0-21.468-2.191Z" transform="translate(-147.289 -147.618)"/>
          <path id="Path_1176075" data-name="Path 1176075" d="M218.976,212.557l-2.9-.421-1.3-2.627c-.418-.9-1.285-.776-1.667,0l-1.3,2.627-2.9.421c-.97.08-1.093,1.01-.515,1.586l2.1,2.045-.5,2.887q.065,1.328,1.349.98l2.593-1.363,2.593,1.363a.944.944,0,0,0,1.349-.98l-.5-2.887,2.1-2.045A.866.866,0,0,0,218.976,212.557Zm-3.23,2.64a.93.93,0,0,0-.267.823l.259,1.512-1.358-.714a.93.93,0,0,0-.865,0l-1.358.714.259-1.512a.93.93,0,0,0-.267-.823l-1.1-1.071,1.518-.221a.929.929,0,0,0,.7-.509l.679-1.376.679,1.376a.929.929,0,0,0,.7.509l1.518.221Z" transform="translate(-182.305 -182.99)"/>
          <path id="Path_1176076" data-name="Path 1176076" d="M56.145,41.125a26.026,26.026,0,0,0,0-18.8,11.655,11.655,0,0,0,7.535-10.807A11.517,11.517,0,0,0,41.351,7.535a26.023,26.023,0,0,0-18.735-.029A11.517,11.517,0,0,0,.3,11.517,11.655,11.655,0,0,0,7.761,22.3a26.02,26.02,0,0,0,0,18.858A11.536,11.536,0,0,0,.3,51.93,11.664,11.664,0,0,0,11.82,63.447a11.649,11.649,0,0,0,10.791-7.493,26.023,26.023,0,0,0,18.743-.03,11.517,11.517,0,1,0,14.79-14.8Zm2.486-22.445a9.639,9.639,0,0,1-12.945,0v-2.02a.772.772,0,0,1,.522-.731L51.229,14.2h1.859l5.022,1.726a.771.771,0,0,1,.52.731v2.02ZM49.262,9.442a2.9,2.9,0,1,1,2.9,2.9A2.9,2.9,0,0,1,49.262,9.442Zm2.9-7.583a9.652,9.652,0,0,1,8.319,14.556,2.629,2.629,0,0,0-1.764-2.245L55.309,13a4.755,4.755,0,1,0-6.3,0l-3.4,1.17a2.629,2.629,0,0,0-1.766,2.246A9.652,9.652,0,0,1,52.158,1.859ZM3.5,16.415a9.656,9.656,0,1,1,17.977-4.9,9.6,9.6,0,0,1-1.339,4.9,2.629,2.629,0,0,0-1.764-2.245L14.971,13a4.755,4.755,0,1,0-6.3,0l-3.4,1.17A2.629,2.629,0,0,0,3.5,16.415ZM14.716,9.442a2.9,2.9,0,1,1-2.9-2.9A2.9,2.9,0,0,1,14.716,9.442ZM5.348,18.679v-2.02a.772.772,0,0,1,.522-.731L10.891,14.2H12.75l5.022,1.726a.771.771,0,0,1,.52.731v2.02a9.639,9.639,0,0,1-12.945,0ZM18.293,59.092a9.639,9.639,0,0,1-12.945,0V57.072a.772.772,0,0,1,.522-.731l5.021-1.726H12.75l5.022,1.726a.771.771,0,0,1,.52.731ZM8.924,49.855a2.9,2.9,0,1,1,2.9,2.9A2.9,2.9,0,0,1,8.924,49.855Zm31.927,4.27a24.168,24.168,0,0,1-17.731.032,11.726,11.726,0,0,0-4-11.133.93.93,0,1,0-1.179,1.437,9.776,9.776,0,0,1,2.2,12.366,2.629,2.629,0,0,0-1.764-2.245l-3.4-1.17a4.755,4.755,0,1,0-6.3,0l-3.4,1.17A2.63,2.63,0,0,0,3.5,56.827a9.6,9.6,0,0,1-1.339-4.9,9.754,9.754,0,0,1,12.528-9.224.93.93,0,0,0,.553-1.775,11.775,11.775,0,0,0-5.693-.293,24.165,24.165,0,0,1,0-17.827A11.628,11.628,0,0,0,23.123,9.3a24.166,24.166,0,0,1,17.726.031A11.629,11.629,0,0,0,54.341,22.827a24.17,24.17,0,0,1,0,17.8,11.655,11.655,0,0,0-13.494,13.5Zm4.834,4.967v-2.02a.772.772,0,0,1,.522-.731l5.021-1.726h1.859l5.022,1.726a.771.771,0,0,1,.52.731v2.02a9.639,9.639,0,0,1-12.945,0Zm6.472-6.341a2.9,2.9,0,1,1,2.9-2.9A2.9,2.9,0,0,1,52.158,52.751Zm8.319,4.077a2.629,2.629,0,0,0-1.764-2.245l-3.4-1.17a4.755,4.755,0,1,0-6.3,0l-3.4,1.17a2.629,2.629,0,0,0-1.766,2.246,9.658,9.658,0,1,1,16.638,0Z" transform="translate(-0.303 0)"/>
          <path id="Path_1176077" data-name="Path 1176077" d="M164.673,145.79a14.422,14.422,0,0,0-8.666-4.826.93.93,0,1,0-.288,1.837,12.548,12.548,0,1,1-3.774-.018.93.93,0,1,0-.269-1.84,14.417,14.417,0,1,0,13,4.847Z" transform="translate(-122.129 -123.465)"/>
        </g>
      </g>
    </g>
  </g>
</svg>
