<svg xmlns="http://www.w3.org/2000/svg" xmlns:xlink="http://www.w3.org/1999/xlink" width="103" height="103" viewBox="0 0 103 103">
  <defs>
    <filter id="Path_978624" x="0" y="0" width="103" height="103" filterUnits="userSpaceOnUse">
      <feOffset dy="3" input="SourceAlpha"/>
      <feGaussianBlur stdDeviation="3" result="blur"/>
      <feFlood flood-opacity="0.161"/>
      <feComposite operator="in" in2="blur"/>
      <feComposite in="SourceGraphic"/>
    </filter>
  </defs>
  <g id="Group_1224353" data-name="Group 1224353" transform="translate(-618 -2197)">
    <g id="Group_1224319" data-name="Group 1224319" transform="translate(0 18)">
      <g id="Group_1223780" data-name="Group 1223780" transform="translate(447 832)">
        <g id="Group_1220479" data-name="Group 1220479" transform="translate(-38.301 -1882)">
          <g id="Group_1214503" data-name="Group 1214503" transform="translate(218.301 3235)">
            <g id="Group_1211421" data-name="Group 1211421">
              <g id="Group_1208651" data-name="Group 1208651">
                <g id="Group_1178144" data-name="Group 1178144">
                  <g id="Group_1177896" data-name="Group 1177896">
                    <g id="Group_1176881" data-name="Group 1176881">
                      <g id="Group_1175148" data-name="Group 1175148">
                        <g id="Group_1173798" data-name="Group 1173798">
                          <g id="Group_1171925" data-name="Group 1171925">
                            <g id="Group_1164524" data-name="Group 1164524">
                              <g id="Group_1144123" data-name="Group 1144123">
                                <g transform="matrix(1, 0, 0, 1, -9, -6)" filter="url(#Path_978624)">
                                  <g id="Path_978624-2" data-name="Path 978624" transform="translate(9 6)" fill="#f8ecfd">
                                    <path d="M 42.5 83.5 C 36.96437835693359 83.5 31.59512901306152 82.41617584228516 26.54141235351562 80.27863311767578 C 21.65934181213379 78.21369171142578 17.27447128295898 75.25723266601562 13.50862312316895 71.49137878417969 C 9.742764472961426 67.72553253173828 6.786305904388428 63.34066009521484 4.721364498138428 58.45858764648438 C 2.583823442459106 53.40486907958984 1.5 48.03562164306641 1.5 42.5 C 1.5 36.96437835693359 2.583823442459106 31.59512901306152 4.721364498138428 26.54141235351562 C 6.786305904388428 21.65934181213379 9.742764472961426 17.27447128295898 13.50862312316895 13.50862312316895 C 17.27447128295898 9.742764472961426 21.65934181213379 6.786305904388428 26.54141235351562 4.721364498138428 C 31.59512901306152 2.583823442459106 36.96437835693359 1.5 42.5 1.5 C 48.03562164306641 1.5 53.40486907958984 2.583823442459106 58.45858764648438 4.721364498138428 C 63.34066009521484 6.786305904388428 67.72553253173828 9.742764472961426 71.49137878417969 13.50862312316895 C 75.25723266601562 17.27447128295898 78.21369171142578 21.65934181213379 80.27863311767578 26.54141235351562 C 82.41617584228516 31.59512901306152 83.5 36.96437835693359 83.5 42.5 C 83.5 48.03562164306641 82.41617584228516 53.40486907958984 80.27863311767578 58.45858764648438 C 78.21369171142578 63.34066009521484 75.25723266601562 67.72553253173828 71.49137878417969 71.49137878417969 C 67.72553253173828 75.25723266601562 63.34066009521484 78.21369171142578 58.45858764648438 80.27863311767578 C 53.40486907958984 82.41617584228516 48.03562164306641 83.5 42.5 83.5 Z" stroke="none"/>
                                    <path d="M 42.5 3 C 37.16621398925781 3 31.99356079101562 4.043960571289062 27.125732421875 6.102882385253906 C 22.42246627807617 8.092185974121094 18.19785308837891 10.94070434570312 14.56928253173828 14.56928253173828 C 10.94070434570312 18.19785308837891 8.092185974121094 22.42246627807617 6.102882385253906 27.125732421875 C 4.043960571289062 31.99356079101562 3 37.16621398925781 3 42.5 C 3 47.83378601074219 4.043960571289062 53.00643920898438 6.102882385253906 57.87425231933594 C 8.092185974121094 62.57753372192383 10.94070434570312 66.80213165283203 14.56928253173828 70.43071746826172 C 18.19786834716797 74.05929565429688 22.42246627807617 76.90781402587891 27.125732421875 78.89711761474609 C 31.99356079101562 80.95603942871094 37.16621398925781 82 42.5 82 C 47.83378601074219 82 53.00642395019531 80.95603942871094 57.87425231933594 78.89711761474609 C 62.57753372192383 76.90781402587891 66.80213165283203 74.05929565429688 70.43071746826172 70.43071746826172 C 74.05929565429688 66.80213165283203 76.90781402587891 62.57753372192383 78.89711761474609 57.87425231933594 C 80.95603942871094 53.00642395019531 82 47.83378601074219 82 42.5 C 82 37.16621398925781 80.95603942871094 31.99356079101562 78.89711761474609 27.125732421875 C 76.90781402587891 22.42246627807617 74.05929565429688 18.19786834716797 70.43071746826172 14.56928253173828 C 66.80213165283203 10.94070434570312 62.57753372192383 8.092185974121094 57.87425231933594 6.102882385253906 C 53.00643920898438 4.043960571289062 47.83378601074219 3 42.5 3 M 42.5 0 C 65.97209167480469 0 85 19.02789306640625 85 42.5 C 85 65.97209167480469 65.97209167480469 85 42.5 85 C 19.02789306640625 85 0 65.97209167480469 0 42.5 C 0 19.02789306640625 19.02789306640625 0 42.5 0 Z" stroke="none" fill="#c252f0"/>
                                  </g>
                                </g>
                              </g>
                            </g>
                          </g>
                        </g>
                      </g>
                    </g>
                  </g>
                </g>
              </g>
            </g>
          </g>
        </g>
      </g>
      <g id="Fill_Outline" data-name="Fill Outline" transform="translate(637.5 2192.253)">
        <path id="Path_1176277" data-name="Path 1176277" d="M3,23V55H24a10,10,0,0,1,8,4,10,10,0,0,1,8-4H61V23Z" fill="#f06e7a"/>
        <path id="Path_1176278" data-name="Path 1176278" d="M32.555,23A3.955,3.955,0,0,0,32,25a3.955,3.955,0,0,0-.555-2H5V53H23.528A18.945,18.945,0,0,1,32,55a18.946,18.946,0,0,1,8.472-2H57V23Z" fill="#a7325c"/>
        <path id="Path_1176279" data-name="Path 1176279" d="M36,19a4,4,0,0,0-4,4V53a18.949,18.949,0,0,1,8.472-2H57V19Z" fill="#92e5eb"/>
        <path id="Path_1176280" data-name="Path 1176280" d="M7,19V51H23.528A18.948,18.948,0,0,1,32,53V23a4,4,0,0,0-4-4Z" fill="#92e5eb"/>
        <path id="Path_1176281" data-name="Path 1176281" d="M38,33V19H36a4,4,0,0,0-4,4V53a18.946,18.946,0,0,1,8.472-2H57V47H52A14,14,0,0,1,38,33Z" fill="#68cbf2"/>
        <path id="Path_1176282" data-name="Path 1176282" d="M22,45A10,10,0,0,1,12,35V19H7V51H23.528A18.945,18.945,0,0,1,32,53V47a18.946,18.946,0,0,0-8.472-2Z" fill="#68cbf2"/>
        <circle id="Ellipse_12523" data-name="Ellipse 12523" cx="11" cy="11" r="11" transform="translate(21 5)" fill="#34b2e4"/>
        <path id="Path_1176283" data-name="Path 1176283" d="M36,23A10.986,10.986,0,0,1,26.49,6.49,10.993,10.993,0,1,0,41.51,21.51,10.93,10.93,0,0,1,36,23Z" fill="#2070a1"/>
        <path id="Path_1176284" data-name="Path 1176284" d="M43,16A10.994,10.994,0,0,1,32,27V24l3-2-1-3,4-5-4-2,3.81-5.34A10.968,10.968,0,0,1,43,16Z" fill="#80e1b8"/>
        <path id="Path_1176285" data-name="Path 1176285" d="M26,15l3,4-2,4-2.6.95a11,11,0,0,1,.04-15.94L29,12Z" fill="#80e1b8"/>
        <path id="Path_1176286" data-name="Path 1176286" d="M34.19,5.22,31,10,29.43,5.3A10.83,10.83,0,0,1,32,5a10.565,10.565,0,0,1,2.19.22Z" fill="#80e1b8"/>
        <path id="Path_1176287" data-name="Path 1176287" d="M33.826,22.783,32,24v3a10.984,10.984,0,0,0,9.515-5.494,10.952,10.952,0,0,1-7.689,1.277Z" fill="#3aba80"/>
        <path id="Path_1176288" data-name="Path 1176288" d="M25,12a10.98,10.98,0,0,1,.452-3.1L24.44,8.01a11,11,0,0,0-.04,15.94L27,23l1.489-2.979A10.959,10.959,0,0,1,25,12Z" fill="#3aba80"/>
        <g id="Group_1224318" data-name="Group 1224318">
          <path id="Path_1176289" data-name="Path 1176289" d="M61,22a1,1,0,0,0-1,1V54H40a11.061,11.061,0,0,0-8,3.451A11.057,11.057,0,0,0,24,54H4V23a1,1,0,0,0-2,0V55a1,1,0,0,0,1,1H24a9.045,9.045,0,0,1,7.2,3.6,1,1,0,0,0,1.6,0A9.044,9.044,0,0,1,40,56H61a1,1,0,0,0,1-1V23A1,1,0,0,0,61,22Z" fill="#2f2f31"/>
          <path id="Path_1176290" data-name="Path 1176290" d="M12,36a1,1,0,0,0-1,1v8a1,1,0,0,0,1,1h2a3,3,0,0,0,0-6H13V37A1,1,0,0,0,12,36Zm3,7a1,1,0,0,1-1,1H13V42h1A1,1,0,0,1,15,43Z" fill="#2f2f31"/>
          <path id="Path_1176291" data-name="Path 1176291" d="M18.1,23.553l-4,8a1,1,0,1,0,1.79.894L17.118,30h3.764L22.1,32.447a1,1,0,1,0,1.79-.894l-4-8a1.042,1.042,0,0,0-1.79,0ZM19.882,28H18.118L19,26.236Z" fill="#2f2f31"/>
          <path id="Path_1176292" data-name="Path 1176292" d="M23.612,41.165a.6.6,0,0,1,.524.309,1,1,0,0,0,1.728-1.006A2.607,2.607,0,0,0,21,41.776v1.613A2.607,2.607,0,0,0,25.864,44.7a1,1,0,0,0-1.728-1.006.6.6,0,0,1-.524.309A.612.612,0,0,1,23,43.389V41.776a.612.612,0,0,1,.612-.611Z" fill="#2f2f31"/>
          <path id="Path_1176293" data-name="Path 1176293" d="M38.528,44.882a1,1,0,0,0,1.027-.05l3-2a1,1,0,0,0-1.11-1.664L40,42.132V36a1,1,0,0,0-1-1H36a1,1,0,0,0,0,2h2v7a1,1,0,0,0,.528.882Z" fill="#2f2f31"/>
          <path id="Path_1176294" data-name="Path 1176294" d="M39,34a1,1,0,0,0,.707-1.707l-2-2a1,1,0,1,0-1.414,1.414l2,2A1,1,0,0,0,39,34Z" fill="#2f2f31"/>
          <path id="Path_1176295" data-name="Path 1176295" d="M53,28a1,1,0,0,0,0-2H44a1,1,0,0,0,0,2h2.867l-.25,2H44a1,1,0,0,0,0,2h2.367l-.359,2.876a.852.852,0,0,0,.009.124H44a1,1,0,0,0,0,2h9a1,1,0,0,0,0-2H52V31a1,1,0,0,0-1-1H48.633l.25-2Zm-3,4v3H48.008l.375-3Z" fill="#2f2f31"/>
          <path id="Path_1176296" data-name="Path 1176296" d="M53,47a1,1,0,0,0,1-1V40a1,1,0,0,0-1-1H45a1,1,0,0,0-1,1v6a1,1,0,0,0,2,0V45h6v1A1,1,0,0,0,53,47Zm-7-4V41h6v2Z" fill="#2f2f31"/>
          <path id="Path_1176297" data-name="Path 1176297" d="M7,40a1,1,0,0,0,1-1V20h9.425a1,1,0,0,0,0-2H7a1,1,0,0,0-1,1V39a1,1,0,0,0,1,1Z" fill="#2f2f31"/>
          <path id="Path_1176298" data-name="Path 1176298" d="M7,52H23.528a18.023,18.023,0,0,1,8.025,1.9c.013.006.029,0,.043.01A1.018,1.018,0,0,0,32,54a1,1,0,0,0,.4-.1c.015-.006.031,0,.046-.01A18.023,18.023,0,0,1,40.472,52H57a1,1,0,0,0,1-1V19a1,1,0,0,0-1-1H46.575a1,1,0,0,0,0,2H56V50H40.472A20.05,20.05,0,0,0,33,51.462V31a1,1,0,0,0-2,0V51.453A20.061,20.061,0,0,0,23.528,50H8V43a1,1,0,0,0-2,0v8a1,1,0,0,0,1,1Z" fill="#2f2f31"/>
          <path id="Path_1176299" data-name="Path 1176299" d="M32,28A11.937,11.937,0,0,0,43.824,14.02a1,1,0,1,0-1.972.328A9.936,9.936,0,0,1,33,25.949V24.535l2.555-1.7a1,1,0,0,0,.394-1.148L35.121,19.2l3.66-4.575a1,1,0,0,0-.334-1.52l-2.975-1.487a1,1,0,1,0-.9,1.789l1.869.935-3.227,4.033a1,1,0,0,0-.168.941l.759,2.276L31.44,23.168A1,1,0,0,0,31,24v1.949a9.921,9.921,0,0,1-4.6-1.666l.939-.344a1,1,0,0,0,.552-.492l2-4A1,1,0,0,0,29.8,18.4l-2.48-3.306,2.387-2.387a1,1,0,0,0-.048-1.46L25.984,8.031a10.013,10.013,0,0,1,2.805-1.493l1.262,3.778a1,1,0,0,0,1.781.239l2.8-4.193a10.063,10.063,0,0,1,5.979,4.571,1,1,0,1,0,1.723-1.016A12,12,0,1,0,32,28Zm.447-21.97L31.3,7.746l-.554-1.659A9.945,9.945,0,0,1,32,6c.15,0,.3.023.447.03ZM24.508,9.4l3.029,2.65-2.244,2.244A1,1,0,0,0,25.2,15.6l2.629,3.5L26.283,22.2l-1.608.588A9.942,9.942,0,0,1,24.508,9.4Z" fill="#2f2f31"/>
        </g>
      </g>
    </g>
  </g>
</svg>
